<svg width="69" height="30" viewBox="0 0 69 30" version="1.1" xmlns="http://www.w3.org/2000/svg" xmlns:xlink="http://www.w3.org/1999/xlink">
<title>Group</title>
<desc>Created using Figma</desc>
<g id="Canvas" transform="translate(2429 -3300)">
<g id="Group">
<g id="Group">
<g id="Group">
<g id="Vector">
<use xlink:href="#path0_fill" transform="translate(-2429 3310.97)" fill="#8A9EA3"/>
</g>
<g id="Vector">
<use xlink:href="#path1_fill" transform="translate(-2416.43 3315.16)" fill="#8A9EA3"/>
</g>
<g id="Vector">
<use xlink:href="#path2_fill" transform="translate(-2375.47 3312.92)" fill="#8A9EA3"/>
</g>
<g id="Vector">
<use xlink:href="#path3_fill" transform="translate(-2404.49 3300)" fill="#8A9EA3"/>
</g>
</g>
</g>
</g>
</g>
<defs>
<path id="path0_fill" fill-rule="evenodd" d="M 7.93806 9.39337C 7.93806 10.8928 6.74735 11.9071 5.49049 11.9071C 4.21158 11.9071 3.04292 10.9148 3.04292 9.39337L 3.04292 1.68229e-07L 0 1.68229e-07L 0 9.39337C 0 12.7009 2.57987 14.8177 5.49049 14.8177C 8.37906 14.8177 10.9589 12.7009 10.9589 9.39337L 10.9589 1.68229e-07L 7.93806 1.68229e-07L 7.93806 9.39337Z"/>
<path id="path1_fill" fill-rule="evenodd" d="M 5.84329 -6.72917e-07C 4.60848 -6.72917e-07 3.41777 0.529203 2.93267 1.43326L 2.93267 0.220501L 0 0.220501L 0 14.8398L 2.93267 14.8398L 2.93267 8.84211C 3.41777 9.74617 4.60848 10.2533 5.84329 10.2533C 8.40111 10.2533 10.6502 8.26881 10.6502 5.11564C 10.6502 2.00656 8.40111 -6.72917e-07 5.84329 -6.72917e-07ZM 5.29204 7.475C 4.07928 7.475 2.99882 6.61505 2.99882 5.13769C 2.99882 3.72648 4.05723 2.75627 5.29204 2.75627C 6.5489 2.75627 7.58525 3.68238 7.58525 5.13769C 7.58525 6.5489 6.5489 7.475 5.29204 7.475Z"/>
<path id="path2_fill" fill-rule="evenodd" d="M 10.2401 8.7425C 8.58638 9.69066 6.44752 10.3522 4.57325 9.60246C 3.29434 9.09531 2.58874 7.83845 2.65489 6.58159C 4.463 7.06669 6.31521 7.30924 8.07922 6.49339C 9.60069 5.78778 10.9457 4.20017 10.637 2.43616C 9.95349 -1.46672 4.48505 0.098842 2.47849 1.77465C -0.123431 3.95762 -0.983386 7.83845 1.39803 10.5286C 3.99995 13.4612 8.54228 12.8218 11.6072 11.0357C 13.0626 10.1758 11.7396 7.88255 10.2401 8.7425ZM 7.48387 2.65666C 8.69663 3.14176 7.06492 4.08992 6.38137 4.28837C 5.52141 4.50887 4.66145 4.37657 3.8015 4.15607C 4.79375 3.11971 6.33727 2.19361 7.48387 2.65666Z"/>
<path id="path3_fill" fill-rule="evenodd" d="M 42.8798 2.1727C 41.1598 1.18045 39.3517 0.452791 37.4113 0.0338384C 35.7575 -0.318964 35.0519 2.19475 36.7057 2.56961C 37.3231 2.70191 37.8964 2.85626 38.4697 3.05471C 32.1854 4.57617 27.8636 9.27285 25.5263 14.9618C 24.4679 12.7347 22.3952 11.1912 19.8373 11.3676C 15.7801 11.6322 13.4428 14.8736 12.0316 18.4678C 11.2819 17.0566 10.0691 16.0643 8.12871 16.0643C 5.96779 16.0643 4.38018 17.3432 3.32178 19.0411C 2.96897 18.578 2.55002 18.2252 2.02082 18.0047C 0.477307 17.3653 -0.867752 19.6144 0.697808 20.2759C 1.88852 20.783 1.91057 22.7896 1.82237 23.8701C 1.69007 25.5679 4.31403 25.5459 4.46838 23.8701C 4.62273 21.9296 5.72524 18.6883 8.15076 18.6883C 10.4881 18.6883 10.5322 22.2604 10.5542 23.8701C 10.5763 25.3033 12.8254 25.7223 13.1341 24.2229C 13.8617 20.6728 15.2068 14.9177 19.4625 14.0798C 24.093 13.1757 23.8725 19.3057 23.6079 22.7455C 23.5638 23.1203 23.5418 23.4952 23.5197 23.8701C 23.4095 25.5679 26.0114 25.5459 26.1657 23.8701C 26.1878 23.5173 26.2319 23.1424 26.2539 22.7675C 27.0698 14.9618 31.4578 7.42064 39.4399 5.54638C 39.043 6.25198 38.6461 6.95759 38.2492 7.66319C 37.4113 9.14055 39.7045 10.4636 40.5204 8.9862C 41.4685 7.31039 42.3947 5.65663 43.3428 3.98082C 43.6956 3.36341 43.4972 2.54756 42.8798 2.1727Z"/>
</defs>
</svg>
