<svg width="25" height="30" viewBox="0 0 25 30" version="1.1" xmlns="http://www.w3.org/2000/svg" xmlns:xlink="http://www.w3.org/1999/xlink">
<title>clipboard</title>
<desc>Created using Figma</desc>
<g id="Canvas" transform="translate(-5947 493)">
<g id="clipboard">
<g id="Vector">
<use xlink:href="#path0_stroke" transform="translate(5948.3 -489.2)" fill="#828282"/>
</g>
<g id="Vector">
<use xlink:href="#path1_stroke" transform="translate(5953.9 -492)" fill="#828282"/>
</g>
</g>
</g>
<defs>
<path id="path0_stroke" d="M 16.8 -1C 16.2477 -1 15.8 -0.552285 15.8 0C 15.8 0.552285 16.2477 1 16.8 1L 16.8 -1ZM 19.6 0L 19.6 -1L 19.6 0ZM 6.21725e-16 22.4L -1 22.4L 6.21725e-16 22.4ZM 2.8 0L 2.8 -1L 2.8 0ZM 5.6 1C 6.15229 1 6.6 0.552285 6.6 0C 6.6 -0.552285 6.15229 -1 5.6 -1L 5.6 1ZM 16.8 1L 19.6 1L 19.6 -1L 16.8 -1L 16.8 1ZM 19.6 1C 20.0774 1 20.5352 1.18964 20.8728 1.52721L 22.287 0.112994C 21.5744 -0.599644 20.6078 -1 19.6 -1L 19.6 1ZM 20.8728 1.52721C 21.2104 1.86477 21.4 2.32261 21.4 2.8L 23.4 2.8C 23.4 1.79218 22.9996 0.825632 22.287 0.112994L 20.8728 1.52721ZM 21.4 2.8L 21.4 22.4L 23.4 22.4L 23.4 2.8L 21.4 2.8ZM 21.4 22.4C 21.4 22.8774 21.2104 23.3352 20.8728 23.6728L 22.287 25.087C 22.9996 24.3744 23.4 23.4078 23.4 22.4L 21.4 22.4ZM 20.8728 23.6728C 20.5352 24.0104 20.0774 24.2 19.6 24.2L 19.6 26.2C 20.6078 26.2 21.5744 25.7996 22.287 25.087L 20.8728 23.6728ZM 19.6 24.2L 2.8 24.2L 2.8 26.2L 19.6 26.2L 19.6 24.2ZM 2.8 24.2C 2.32261 24.2 1.86477 24.0104 1.52721 23.6728L 0.112994 25.087C 0.825632 25.7996 1.79218 26.2 2.8 26.2L 2.8 24.2ZM 1.52721 23.6728C 1.18964 23.3352 1 22.8774 1 22.4L -1 22.4C -1 23.4078 -0.599644 24.3744 0.112994 25.087L 1.52721 23.6728ZM 1 22.4L 1 2.8L -1 2.8L -1 22.4L 1 22.4ZM 1 2.8C 1 2.32261 1.18964 1.86477 1.52721 1.52721L 0.112994 0.112994C -0.599644 0.825632 -1 1.79218 -1 2.8L 1 2.8ZM 1.52721 1.52721C 1.86477 1.18964 2.32261 1 2.8 1L 2.8 -1C 1.79218 -1 0.825633 -0.599644 0.112994 0.112994L 1.52721 1.52721ZM 2.8 1L 5.6 1L 5.6 -1L 2.8 -1L 2.8 1Z"/>
<path id="path1_stroke" d="M 1.4 1L 9.8 1L 9.8 -1L 1.4 -1L 1.4 1ZM 9.8 1C 10.0209 1 10.2 1.17909 10.2 1.4L 12.2 1.4C 12.2 0.0745166 11.1255 -1 9.8 -1L 9.8 1ZM 10.2 1.4L 10.2 4.2L 12.2 4.2L 12.2 1.4L 10.2 1.4ZM 10.2 4.2C 10.2 4.42091 10.0209 4.6 9.8 4.6L 9.8 6.6C 11.1255 6.6 12.2 5.52548 12.2 4.2L 10.2 4.2ZM 9.8 4.6L 1.4 4.6L 1.4 6.6L 9.8 6.6L 9.8 4.6ZM 1.4 4.6C 1.17909 4.6 1 4.42091 1 4.2L -1 4.2C -1 5.52548 0.0745166 6.6 1.4 6.6L 1.4 4.6ZM 1 4.2L 1 1.4L -1 1.4L -1 4.2L 1 4.2ZM 1 1.4C 1 1.17909 1.17909 1 1.4 1L 1.4 -1C 0.0745166 -1 -1 0.0745166 -1 1.4L 1 1.4Z"/>
</defs>
</svg>
