<svg width="31" height="30" viewBox="0 0 31 30" version="1.1" xmlns="http://www.w3.org/2000/svg" xmlns:xlink="http://www.w3.org/1999/xlink">
<title>compass</title>
<desc>Created using Figma</desc>
<g id="Canvas" transform="translate(-5853 493)">
<g id="compass">
<g id="Vector">
<use xlink:href="#path0_stroke" transform="translate(5854.86 -492)" fill="#00C7FF"/>
</g>
<g id="Vector">
<use xlink:href="#path1_stroke" transform="translate(5862.92 -483.936)" fill="#00C7FF"/>
</g>
</g>
</g>
<defs>
<path id="path0_stroke" d="M 27 14C 27 21.1797 21.1797 27 14 27L 14 29C 22.2843 29 29 22.2843 29 14L 27 14ZM 14 27C 6.8203 27 1 21.1797 1 14L -1 14C -1 22.2843 5.71573 29 14 29L 14 27ZM 1 14C 1 6.8203 6.8203 1 14 1L 14 -1C 5.71573 -1 -1 5.71573 -1 14L 1 14ZM 14 1C 21.1797 1 27 6.8203 27 14L 29 14C 29 5.71573 22.2843 -1 14 -1L 14 1Z"/>
<path id="path1_stroke" d="M 11.872 3.20435e-07L 12.8207 0.316228C 12.9405 -0.0431066 12.8469 -0.439274 12.5791 -0.707106C 12.3113 -0.974939 11.9151 -1.06846 11.5558 -0.948683L 11.872 3.20435e-07ZM 8.904 8.904L 9.22023 9.85268C 9.51883 9.75315 9.75315 9.51883 9.85268 9.22023L 8.904 8.904ZM 3.20435e-07 11.872L -0.948683 11.5558C -1.06846 11.9151 -0.974939 12.3113 -0.707106 12.5791C -0.439274 12.8469 -0.0431066 12.9405 0.316228 12.8207L 3.20435e-07 11.872ZM 2.968 2.968L 2.65177 2.01932C 2.35317 2.11885 2.11885 2.35317 2.01932 2.65177L 2.968 2.968ZM 10.9233 -0.316227L 7.95532 8.58777L 9.85268 9.22023L 12.8207 0.316228L 10.9233 -0.316227ZM 8.58777 7.95532L -0.316227 10.9233L 0.316228 12.8207L 9.22023 9.85268L 8.58777 7.95532ZM 0.948684 12.1882L 3.91668 3.28423L 2.01932 2.65177L -0.948683 11.5558L 0.948684 12.1882ZM 3.28423 3.91668L 12.1882 0.948684L 11.5558 -0.948683L 2.65177 2.01932L 3.28423 3.91668Z"/>
</defs>
</svg>
