<svg width="21" height="22" viewBox="0 0 21 22" version="1.1" xmlns="http://www.w3.org/2000/svg" xmlns:xlink="http://www.w3.org/1999/xlink">
<title>bell</title>
<desc>Created using Figma</desc>
<g id="Canvas" transform="translate(4839 149)">
<g id="bell">
<g id="Vector">
<use xlink:href="#path0_stroke" transform="translate(-4838 -148)" fill="#666666"/>
</g>
</g>
</g>
<defs>
<path id="path0_stroke" d="M 0 14C -0.552285 14 -1 14.4477 -1 15C -1 15.5523 -0.552285 16 0 16L 0 14ZM 3 12L 4 12L 3 12ZM 3 7L 2 7L 2 7L 3 7ZM 10 -1.04308e-07L 10 1L 10 -1.04308e-07ZM 17 7L 18 7L 18 7L 17 7ZM 17 12L 16 12L 17 12ZM 12.595 19.5018C 12.8721 19.024 12.7095 18.4121 12.2318 18.135C 11.754 17.8579 11.1421 18.0205 10.865 18.4982L 12.595 19.5018ZM 9.135 18.4982C 8.85788 18.0205 8.24595 17.8579 7.76823 18.135C 7.2905 18.4121 7.12788 19.024 7.405 19.5018L 9.135 18.4982ZM 20 14L 0 14L 0 16L 20 16L 20 14ZM 4.46517e-15 16C 1.06087 16 2.07828 15.5786 2.82843 14.8284L 1.41421 13.4142C 1.03914 13.7893 0.530433 14 -4.46517e-15 14L 4.46517e-15 16ZM 2.82843 14.8284C 3.57857 14.0783 4 13.0609 4 12L 2 12C 2 12.5304 1.78929 13.0391 1.41421 13.4142L 2.82843 14.8284ZM 4 12L 4 7L 2 7L 2 12L 4 12ZM 4 7C 4 5.4087 4.63214 3.88258 5.75736 2.75736L 4.34315 1.34315C 2.84285 2.84344 2 4.87827 2 7L 4 7ZM 5.75736 2.75736C 6.88258 1.63214 8.4087 1 10 1L 10 -1C 7.87827 -1 5.84344 -0.157145 4.34315 1.34315L 5.75736 2.75736ZM 10 1C 11.5913 1 13.1174 1.63214 14.2426 2.75736L 15.6569 1.34315C 14.1566 -0.157145 12.1217 -1 10 -1L 10 1ZM 14.2426 2.75736C 15.3679 3.88258 16 5.4087 16 7L 18 7C 18 4.87827 17.1571 2.84344 15.6569 1.34315L 14.2426 2.75736ZM 16 7L 16 12L 18 12L 18 7L 16 7ZM 16 12C 16 13.0609 16.4214 14.0783 17.1716 14.8284L 18.5858 13.4142C 18.2107 13.0391 18 12.5304 18 12L 16 12ZM 17.1716 14.8284C 17.9217 15.5786 18.9391 16 20 16L 20 14C 19.4696 14 18.9609 13.7893 18.5858 13.4142L 17.1716 14.8284ZM 10.865 18.4982C 10.7619 18.6929 10.6941 18.7605 10.4991 18.863L 11.4973 20.5961C 11.9096 20.3488 12.3465 19.9133 12.595 19.5018L 10.865 18.4982ZM 10.4991 18.863C 10.3126 18.9802 10.2201 19.005 10 18.9965L 10 20.9965C 10.4807 20.9879 11.0766 20.8286 11.4973 20.5961L 10.4991 18.863ZM 10 18.9965C 9.77989 19.005 9.68736 18.9802 9.50089 18.863L 8.50266 20.5961C 8.92342 20.8286 9.51935 20.9879 10 20.9965L 10 18.9965ZM 9.50089 18.863C 9.3059 18.7605 9.23807 18.6929 9.135 18.4982L 7.405 19.5018C 7.65355 19.9133 8.09041 20.3488 8.50266 20.5961L 9.50089 18.863Z"/>
</defs>
</svg>
