<svg width="25" height="28" viewBox="0 0 25 28" version="1.1" xmlns="http://www.w3.org/2000/svg" xmlns:xlink="http://www.w3.org/1999/xlink">
<title>user</title>
<desc>Created using Figma</desc>
<g id="Canvas" transform="translate(-6554 493)">
<g id="user">
<g id="Vector">
<use xlink:href="#path0_stroke" transform="translate(6555.25 -474.8)" fill="#00C7FF"/>
</g>
<g id="Vector">
<use xlink:href="#path1_stroke" transform="translate(6560.85 -491.6)" fill="#00C7FF"/>
</g>
</g>
</g>
<defs>
<path id="path0_stroke" d="M 21.4 8.4C 21.4 8.95229 21.8477 9.4 22.4 9.4C 22.9523 9.4 23.4 8.95229 23.4 8.4L 21.4 8.4ZM 16.8 2.4869e-15L 16.8 -1L 16.8 2.4869e-15ZM 5.6 2.4869e-15L 5.6 -1L 5.6 2.4869e-15ZM 1.24345e-15 5.6L -1 5.6L 1.24345e-15 5.6ZM -1 8.4C -1 8.95229 -0.552285 9.4 1.24345e-15 9.4C 0.552285 9.4 1 8.95229 1 8.4L -1 8.4ZM 23.4 8.4L 23.4 5.6L 21.4 5.6L 21.4 8.4L 23.4 8.4ZM 23.4 5.6C 23.4 3.84957 22.7046 2.17084 21.4669 0.933096L 20.0527 2.34731C 20.9154 3.20998 21.4 4.38 21.4 5.6L 23.4 5.6ZM 21.4669 0.933096C 20.2292 -0.304643 18.5504 -1 16.8 -1L 16.8 1C 18.02 1 19.19 1.48464 20.0527 2.34731L 21.4669 0.933096ZM 16.8 -1L 5.6 -1L 5.6 1L 16.8 1L 16.8 -1ZM 5.6 -1C 3.84957 -1 2.17084 -0.304643 0.933095 0.933096L 2.34731 2.34731C 3.20998 1.48464 4.38 1 5.6 1L 5.6 -1ZM 0.933095 0.933096C -0.304645 2.17084 -1 3.84957 -1 5.6L 1 5.6C 1 4.38 1.48464 3.20998 2.34731 2.34731L 0.933095 0.933096ZM -1 5.6L -1 8.4L 1 8.4L 1 5.6L -1 5.6Z"/>
<path id="path1_stroke" d="M 10.2 5.6C 10.2 8.14051 8.14051 10.2 5.6 10.2L 5.6 12.2C 9.24508 12.2 12.2 9.24508 12.2 5.6L 10.2 5.6ZM 5.6 10.2C 3.05949 10.2 1 8.14051 1 5.6L -1 5.6C -1 9.24508 1.95492 12.2 5.6 12.2L 5.6 10.2ZM 1 5.6C 1 3.05949 3.05949 1 5.6 1L 5.6 -1C 1.95492 -1 -1 1.95492 -1 5.6L 1 5.6ZM 5.6 1C 8.14051 1 10.2 3.05949 10.2 5.6L 12.2 5.6C 12.2 1.95492 9.24508 -1 5.6 -1L 5.6 1Z"/>
</defs>
</svg>
