<svg width="68" height="35" viewBox="0 0 68 35" version="1.1" xmlns="http://www.w3.org/2000/svg" xmlns:xlink="http://www.w3.org/1999/xlink">
<title>Group</title>
<desc>Created using Figma</desc>
<g id="Canvas" transform="translate(-1500 -3037)">
<rect x="1500" y="3037" width="68" height="35" fill="#E5E5E5"/>
<clipPath id="clip-0" clip-rule="evenodd">
<path d="M 289 2593L 1729 2593L 1729 3898L 289 3898L 289 2593Z" fill="#FFFFFF"/>
</clipPath>
<g id="Projeto Publicado" clip-path="url(#clip-0)">
<path d="M 289 2593L 1729 2593L 1729 3898L 289 3898L 289 2593Z" fill="#FFFFFF"/>
<g id="Component">
<g id="Rectangle 11">
<use xlink:href="#path0_fill" transform="translate(1444 3011)" fill="#FFFFFF"/>
<mask id="mask0_outline_ins">
<use xlink:href="#path0_fill" fill="white" transform="translate(1444 3011)"/>
</mask>
<g mask="url(#mask0_outline_ins)">
<use xlink:href="#path1_stroke_2x" transform="translate(1444 3011)" fill="#00C7FF"/>
</g>
</g>
<g id="Group">
<g id="user">
<g id="Vector">
<use xlink:href="#path2_stroke" transform="translate(1523 3061.8)" fill="#00C7FF"/>
</g>
<g id="Vector">
<use xlink:href="#path3_stroke" transform="translate(1528.6 3045)" fill="#00C7FF"/>
</g>
</g>
<g id="user">
<g id="Vector">
<use xlink:href="#path4_stroke" transform="translate(1550 3050.67)" fill="#00C7FF"/>
</g>
<g id="Vector">
<use xlink:href="#path5_stroke" transform="translate(1554.25 3038)" fill="#00C7FF"/>
</g>
</g>
<g id="user">
<g id="Vector">
<use xlink:href="#path4_stroke" transform="translate(1501 3050.67)" fill="#00C7FF"/>
</g>
<g id="Vector">
<use xlink:href="#path5_stroke" transform="translate(1505.25 3038)" fill="#00C7FF"/>
</g>
</g>
</g>
</g>
</g>
</g>
<defs>
<path id="path0_fill" d="M 0 4C 0 1.79086 1.79086 0 4 0L 176 0C 178.209 0 180 1.79086 180 4L 180 157C 180 159.209 178.209 161 176 161L 4 161C 1.79086 161 0 159.209 0 157L 0 4Z"/>
<path id="path1_stroke_2x" d="M 4 2L 176 2L 176 -2L 4 -2L 4 2ZM 178 4L 178 157L 182 157L 182 4L 178 4ZM 176 159L 4 159L 4 163L 176 163L 176 159ZM 2 157L 2 4L -2 4L -2 157L 2 157ZM 4 -2C 0.686292 -2 -2 0.686292 -2 4L 2 4C 2 2.89543 2.89543 2 4 2L 4 -2ZM 176 2C 177.105 2 178 2.89543 178 4L 182 4C 182 0.686292 179.314 -2 176 -2L 176 2ZM 178 157C 178 158.105 177.105 159 176 159L 176 163C 179.314 163 182 160.314 182 157L 178 157ZM 4 159C 2.89543 159 2 158.105 2 157L -2 157C -2 160.314 0.686292 163 4 163L 4 159Z"/>
<path id="path2_stroke" d="M 21.4 8.4C 21.4 8.95229 21.8477 9.4 22.4 9.4C 22.9523 9.4 23.4 8.95229 23.4 8.4L 21.4 8.4ZM 16.8 2.4869e-15L 16.8 -1L 16.8 2.4869e-15ZM 5.6 2.4869e-15L 5.6 -1L 5.6 2.4869e-15ZM 1.24345e-15 5.6L -1 5.6L 1.24345e-15 5.6ZM -1 8.4C -1 8.95229 -0.552285 9.4 1.24345e-15 9.4C 0.552285 9.4 1 8.95229 1 8.4L -1 8.4ZM 23.4 8.4L 23.4 5.6L 21.4 5.6L 21.4 8.4L 23.4 8.4ZM 23.4 5.6C 23.4 3.84957 22.7046 2.17084 21.4669 0.933096L 20.0527 2.34731C 20.9154 3.20998 21.4 4.38 21.4 5.6L 23.4 5.6ZM 21.4669 0.933096C 20.2292 -0.304643 18.5504 -1 16.8 -1L 16.8 1C 18.02 1 19.19 1.48464 20.0527 2.34731L 21.4669 0.933096ZM 16.8 -1L 5.6 -1L 5.6 1L 16.8 1L 16.8 -1ZM 5.6 -1C 3.84957 -1 2.17084 -0.304643 0.933095 0.933096L 2.34731 2.34731C 3.20998 1.48464 4.38 1 5.6 1L 5.6 -1ZM 0.933095 0.933096C -0.304645 2.17084 -1 3.84957 -1 5.6L 1 5.6C 1 4.38 1.48464 3.20998 2.34731 2.34731L 0.933095 0.933096ZM -1 5.6L -1 8.4L 1 8.4L 1 5.6L -1 5.6Z"/>
<path id="path3_stroke" d="M 10.2 5.6C 10.2 8.14051 8.14051 10.2 5.6 10.2L 5.6 12.2C 9.24508 12.2 12.2 9.24508 12.2 5.6L 10.2 5.6ZM 5.6 10.2C 3.05949 10.2 1 8.14051 1 5.6L -1 5.6C -1 9.24508 1.95492 12.2 5.6 12.2L 5.6 10.2ZM 1 5.6C 1 3.05949 3.05949 1 5.6 1L 5.6 -1C 1.95492 -1 -1 1.95492 -1 5.6L 1 5.6ZM 5.6 1C 8.14051 1 10.2 3.05949 10.2 5.6L 12.2 5.6C 12.2 1.95492 9.24508 -1 5.6 -1L 5.6 1Z"/>
<path id="path4_stroke" d="M 16 6.33333C 16 6.88562 16.4477 7.33333 17 7.33333C 17.5523 7.33333 18 6.88562 18 6.33333L 16 6.33333ZM 12.75 1.87504e-15L 12.75 -1L 12.75 1.87504e-15ZM 4.25 1.87504e-15L 4.25 -1L 4.25 1.87504e-15ZM 9.4369e-16 4.22222L -1 4.22222L 9.4369e-16 4.22222ZM -1 6.33333C -1 6.88562 -0.552285 7.33333 9.4369e-16 7.33333C 0.552285 7.33333 1 6.88562 1 6.33333L -1 6.33333ZM 18 6.33333L 18 4.22222L 16 4.22222L 16 6.33333L 18 6.33333ZM 18 4.22222C 18 2.83508 17.4453 1.50608 16.46 0.52724L 15.0504 1.94608C 15.6592 2.55088 16 3.36976 16 4.22222L 18 4.22222ZM 16.46 0.52724C 15.4749 -0.451384 14.1403 -1 12.75 -1L 12.75 1C 13.6141 1 14.4414 1.34107 15.0504 1.94608L 16.46 0.52724ZM 12.75 -1L 4.25 -1L 4.25 1L 12.75 1L 12.75 -1ZM 4.25 -1C 2.85972 -1 1.52507 -0.451384 0.540011 0.52724L 1.94958 1.94608C 2.55858 1.34107 3.38594 1 4.25 1L 4.25 -1ZM 0.540011 0.52724C -0.445273 1.50608 -1 2.83508 -1 4.22222L 1 4.22222C 1 3.36976 1.34081 2.55088 1.94958 1.94608L 0.540011 0.52724ZM -1 4.22222L -1 6.33333L 1 6.33333L 1 4.22222L -1 4.22222Z"/>
<path id="path5_stroke" d="M 7.5 4.22222C 7.5 5.99564 6.05112 7.44445 4.25 7.44445L 4.25 9.44445C 7.1433 9.44445 9.5 7.11255 9.5 4.22222L 7.5 4.22222ZM 4.25 7.44445C 2.44888 7.44445 1 5.99564 1 4.22222L -1 4.22222C -1 7.11255 1.3567 9.44445 4.25 9.44445L 4.25 7.44445ZM 1 4.22222C 1 2.44881 2.44888 1 4.25 1L 4.25 -1C 1.3567 -1 -1 1.3319 -1 4.22222L 1 4.22222ZM 4.25 1C 6.05112 1 7.5 2.44881 7.5 4.22222L 9.5 4.22222C 9.5 1.3319 7.1433 -1 4.25 -1L 4.25 1Z"/>
</defs>
</svg>
