<svg width="139" height="49" viewBox="0 0 139 49" version="1.1" xmlns="http://www.w3.org/2000/svg" xmlns:xlink="http://www.w3.org/1999/xlink">
<title>logo</title>
<desc>Created using Figma</desc>
<g id="Canvas" transform="translate(2424 1600)">
<rect x="-2424" y="-1600" width="139" height="49" fill="#E5E5E5"/>
<clipPath id="clip-0" clip-rule="evenodd">
<path d="M -2523 -1615L -1155 -1615L -1155 -236L -2523 -236L -2523 -1615Z" fill="#FFFFFF"/>
</clipPath>
<g id="Help - 1.1" clip-path="url(#clip-0)">
<path d="M -2523 -1615L -1155 -1615L -1155 -236L -2523 -236L -2523 -1615Z" fill="#F4F8F9"/>
<g id="navbar">
<g id="Rectangle 2">
<use xlink:href="#path0_fill" transform="translate(-2573 -1615)" fill="#FFFFFF"/>
</g>
<g id="logo">
<g id="Group">
<g id="Group">
<g id="Group">
<g id="Vector">
<use xlink:href="#path1_fill" transform="translate(-2424 -1581.45)"/>
</g>
<g id="Vector">
<use xlink:href="#path2_fill" transform="translate(-2403.89 -1574.75)"/>
</g>
<g id="Vector">
<use xlink:href="#path3_fill" transform="translate(-2338.35 -1578.33)" fill="#00C7FF"/>
</g>
<g id="Vector">
<use xlink:href="#path4_fill" transform="translate(-2384.79 -1599)" fill="#00C7FF"/>
</g>
</g>
</g>
</g>
<g id="Beta">
<use xlink:href="#path5_fill" transform="translate(-2313 -1566)" fill="#8A9EA3"/>
</g>
</g>
</g>
</g>
</g>
<defs>
<path id="path0_fill" d="M 0 0L 1467 0L 1467 80L 0 80L 0 0Z"/>
<path id="path1_fill" fill-rule="evenodd" d="M 12.7009 15.0294C 12.7009 17.4284 10.7958 19.0513 8.78478 19.0513C 6.73853 19.0513 4.86868 17.4637 4.86868 15.0294L 4.86868 2.69167e-07L 0 2.69167e-07L 0 15.0294C 0 20.3214 4.12779 23.7083 8.78478 23.7083C 13.4065 23.7083 17.5343 20.3214 17.5343 15.0294L 17.5343 2.69167e-07L 12.7009 2.69167e-07L 12.7009 15.0294Z"/>
<path id="path2_fill" fill-rule="evenodd" d="M 9.34927 -1.07667e-06C 7.37357 -1.07667e-06 5.46844 0.846725 4.69228 2.29322L 4.69228 0.352802L 0 0.352802L 0 23.7436L 4.69228 23.7436L 4.69228 14.1474C 5.46844 15.5939 7.37357 16.4053 9.34927 16.4053C 13.4418 16.4053 17.0404 13.2301 17.0404 8.18502C 17.0404 3.2105 13.4418 -1.07667e-06 9.34927 -1.07667e-06ZM 8.46726 11.96C 6.52685 11.96 4.79811 10.5841 4.79811 8.2203C 4.79811 5.96236 6.49157 4.41003 8.46726 4.41003C 10.4782 4.41003 12.1364 5.8918 12.1364 8.2203C 12.1364 10.4782 10.4782 11.96 8.46726 11.96Z"/>
<path id="path3_fill" fill-rule="evenodd" d="M 16.3842 13.988C 13.7382 15.5051 10.316 16.5635 7.3172 15.3639C 5.27095 14.5525 4.14198 12.5415 4.24782 10.5305C 7.1408 11.3067 10.1043 11.6948 12.9268 10.3894C 15.3611 9.26045 17.5132 6.72027 17.0193 3.89785C 15.9256 -2.34675 7.17608 0.158147 3.96558 2.83945C -0.197489 6.33219 -1.57342 12.5415 2.23685 16.8457C 6.39992 21.538 13.6676 20.5149 18.5716 17.6572C 20.9001 16.2812 18.7833 12.6121 16.3842 13.988ZM 11.9742 4.25066C 13.9146 5.02682 11.3039 6.54387 10.2102 6.8614C 8.83426 7.2142 7.45833 7.00252 6.0824 6.64972C 7.67001 4.99154 10.1396 3.50977 11.9742 4.25066Z"/>
<path id="path4_fill" fill-rule="evenodd" d="M 68.6076 3.47633C 65.8558 1.88871 62.9628 0.724466 59.8581 0.0541415C 57.2121 -0.510343 56.0831 3.51161 58.7291 4.11137C 59.717 4.32305 60.6343 4.57001 61.5516 4.88754C 51.4967 7.32187 44.5818 14.8366 40.8421 23.9389C 39.1486 20.3756 35.8323 17.906 31.7398 18.1882C 25.2482 18.6116 21.5085 23.7978 19.2505 29.5484C 18.051 27.2905 16.1106 25.7029 13.0059 25.7029C 9.54847 25.7029 7.00829 27.7491 5.31484 30.4657C 4.75036 29.7248 4.08004 29.1603 3.23331 28.8075C 0.763691 27.7844 -1.3884 31.383 1.11649 32.4414C 3.02163 33.2529 3.05691 36.4634 2.91579 38.1921C 2.7041 40.9087 6.90245 40.8734 7.14941 38.1921C 7.39638 35.0874 9.16039 29.9012 13.0412 29.9012C 16.7809 29.9012 16.8515 35.6166 16.8868 38.1921C 16.922 40.4853 20.5206 41.1556 21.0146 38.7566C 22.1788 33.0765 24.3309 23.8683 31.14 22.5277C 38.5488 21.0812 38.196 30.8891 37.7727 36.3928C 37.7021 36.9926 37.6668 37.5923 37.6316 38.1921C 37.4552 40.9087 41.6182 40.8734 41.8652 38.1921C 41.9005 37.6276 41.971 37.0278 42.0063 36.4281C 43.3117 23.9389 50.3324 11.873 63.1039 8.8742C 62.4689 10.0032 61.8338 11.1321 61.1988 12.2611C 59.8581 14.6249 63.5273 16.7417 64.8326 14.3779C 66.3497 11.6966 67.8315 9.05061 69.3485 6.36931C 69.913 5.38146 69.5955 4.07609 68.6076 3.47633Z"/>
<path id="path5_fill" d="M 1.253 14L 1.253 3.955L 4.501 3.955C 5.12633 3.955 5.663 4.01567 6.111 4.137C 6.559 4.25833 6.92767 4.43333 7.217 4.662C 7.50633 4.886 7.71867 5.16133 7.854 5.488C 7.994 5.81467 8.064 6.181 8.064 6.587C 8.064 6.82967 8.02433 7.06533 7.945 7.294C 7.87033 7.518 7.756 7.728 7.602 7.924C 7.448 8.11533 7.25433 8.29033 7.021 8.449C 6.78767 8.603 6.51467 8.729 6.202 8.827C 6.92533 8.97167 7.47133 9.23767 7.84 9.625C 8.21333 10.0077 8.4 10.507 8.4 11.123C 8.4 11.5523 8.32067 11.9443 8.162 12.299C 8.00333 12.649 7.77233 12.95 7.469 13.202C 7.16567 13.454 6.79233 13.65 6.349 13.79C 5.91033 13.93 5.40867 14 4.844 14L 1.253 14ZM 2.695 9.45L 2.695 12.852L 4.823 12.852C 5.20567 12.852 5.53233 12.8077 5.803 12.719C 6.07367 12.6303 6.29533 12.509 6.468 12.355C 6.64067 12.1963 6.76667 12.0097 6.846 11.795C 6.93 11.5803 6.972 11.3447 6.972 11.088C 6.972 10.584 6.79467 10.185 6.44 9.891C 6.08533 9.597 5.54633 9.45 4.823 9.45L 2.695 9.45ZM 2.695 8.428L 4.438 8.428C 4.81133 8.428 5.13567 8.38833 5.411 8.309C 5.68633 8.22967 5.91267 8.11767 6.09 7.973C 6.272 7.82833 6.40733 7.65333 6.496 7.448C 6.58467 7.24267 6.629 7.014 6.629 6.762C 6.629 6.18333 6.454 5.761 6.104 5.495C 5.75867 5.22433 5.22433 5.089 4.501 5.089L 2.695 5.089L 2.695 8.428ZM 12.8677 6.783C 13.2971 6.783 13.6938 6.85533 14.0577 7C 14.4217 7.14 14.7368 7.34533 15.0027 7.616C 15.2687 7.88667 15.4764 8.22033 15.6257 8.617C 15.7751 9.009 15.8497 9.45933 15.8497 9.968C 15.8497 10.1733 15.8264 10.311 15.7797 10.381C 15.7378 10.451 15.6561 10.486 15.5348 10.486L 10.8448 10.486C 10.8588 10.92 10.9194 11.298 11.0267 11.62C 11.1388 11.942 11.2881 12.2103 11.4748 12.425C 11.6661 12.635 11.8948 12.7937 12.1608 12.901C 12.4267 13.0037 12.7231 13.055 13.0498 13.055C 13.3577 13.055 13.6214 13.02 13.8407 12.95C 14.0647 12.88 14.2561 12.803 14.4147 12.719C 14.5781 12.635 14.7157 12.558 14.8278 12.488C 14.9397 12.418 15.0377 12.383 15.1218 12.383C 15.2337 12.383 15.3154 12.425 15.3667 12.509L 15.7447 12.992C 15.5814 13.188 15.3924 13.356 15.1778 13.496C 14.9631 13.6313 14.7321 13.7457 14.4847 13.839C 14.2374 13.9277 13.9808 13.993 13.7147 14.035C 13.4534 14.077 13.1944 14.098 12.9377 14.098C 12.4478 14.098 11.9928 14.0163 11.5728 13.853C 11.1574 13.685 10.7981 13.4423 10.4947 13.125C 10.1914 12.803 9.95342 12.4063 9.78075 11.935C 9.61275 11.459 9.52875 10.913 9.52875 10.297C 9.52875 9.80233 9.60575 9.34267 9.75975 8.918C 9.91375 8.48867 10.1331 8.11767 10.4178 7.805C 10.7071 7.48767 11.0571 7.238 11.4677 7.056C 11.8831 6.874 12.3498 6.783 12.8677 6.783ZM 12.8888 7.756C 12.3054 7.756 11.8458 7.92633 11.5098 8.267C 11.1784 8.603 10.9708 9.06967 10.8867 9.667L 14.6598 9.667C 14.6598 9.387 14.6201 9.13033 14.5408 8.897C 14.4614 8.66367 14.3448 8.463 14.1907 8.295C 14.0414 8.127 13.8571 7.99633 13.6377 7.903C 13.4184 7.805 13.1688 7.756 12.8888 7.756ZM 19.4885 14.112C 18.9192 14.112 18.4805 13.9533 18.1725 13.636C 17.8645 13.3187 17.7105 12.8613 17.7105 12.264L 17.7105 7.98L 16.8775 7.98C 16.7982 7.98 16.7329 7.95667 16.6815 7.91C 16.6302 7.85867 16.6045 7.78633 16.6045 7.693L 16.6045 7.161L 17.7595 7.007L 18.0605 4.858C 18.0792 4.78333 18.1142 4.725 18.1655 4.683C 18.2169 4.63633 18.2845 4.613 18.3685 4.613L 19.0405 4.613L 19.0405 7.014L 21.0635 7.014L 21.0635 7.98L 19.0405 7.98L 19.0405 12.173C 19.0405 12.4577 19.1082 12.6723 19.2435 12.817C 19.3835 12.957 19.5655 13.027 19.7895 13.027C 19.9155 13.027 20.0252 13.0107 20.1185 12.978C 20.2119 12.9453 20.2912 12.908 20.3565 12.866C 20.4219 12.824 20.4779 12.7867 20.5245 12.754C 20.5759 12.7213 20.6202 12.705 20.6575 12.705C 20.6995 12.705 20.7322 12.7143 20.7555 12.733C 20.7835 12.7517 20.8115 12.7843 20.8395 12.831L 21.2315 13.468C 21.0075 13.6733 20.7415 13.832 20.4335 13.944C 20.1302 14.056 19.8152 14.112 19.4885 14.112ZM 26.8645 14C 26.7338 14 26.6335 13.979 26.5635 13.937C 26.4935 13.895 26.4375 13.8133 26.3955 13.692L 26.2485 13.055C 26.0665 13.223 25.8868 13.3747 25.7095 13.51C 25.5321 13.6407 25.3455 13.7503 25.1495 13.839C 24.9581 13.9277 24.7528 13.9953 24.5335 14.042C 24.3141 14.0887 24.0691 14.112 23.7985 14.112C 23.5185 14.112 23.2571 14.0747 23.0145 14C 22.7718 13.9207 22.5595 13.8017 22.3775 13.643C 22.2001 13.4843 22.0578 13.2883 21.9505 13.055C 21.8478 12.817 21.7965 12.537 21.7965 12.215C 21.7965 11.935 21.8711 11.6667 22.0205 11.41C 22.1745 11.1533 22.4218 10.9247 22.7625 10.724C 23.1078 10.5187 23.5558 10.3507 24.1065 10.22C 24.6618 10.0893 25.3431 10.0147 26.1505 9.996L 26.1505 9.464C 26.1505 8.92733 26.0338 8.52367 25.8005 8.253C 25.5718 7.97767 25.2335 7.84 24.7855 7.84C 24.4821 7.84 24.2278 7.87967 24.0225 7.959C 23.8218 8.03367 23.6468 8.11767 23.4975 8.211C 23.3528 8.29967 23.2245 8.38133 23.1125 8.456C 23.0005 8.53067 22.8885 8.568 22.7765 8.568C 22.6831 8.568 22.6038 8.54467 22.5385 8.498C 22.4778 8.44667 22.4241 8.38833 22.3775 8.323L 22.1395 7.889C 22.5361 7.51567 22.9631 7.23567 23.4205 7.049C 23.8825 6.86233 24.3911 6.769 24.9465 6.769C 25.3478 6.769 25.7048 6.83433 26.0175 6.965C 26.3301 7.09567 26.5915 7.28 26.8015 7.518C 27.0161 7.75133 27.1771 8.03367 27.2845 8.365C 27.3965 8.69633 27.4525 9.06267 27.4525 9.464L 27.4525 14L 26.8645 14ZM 24.1975 13.181C 24.4075 13.181 24.6011 13.16 24.7785 13.118C 24.9605 13.076 25.1285 13.0153 25.2825 12.936C 25.4411 12.8567 25.5905 12.761 25.7305 12.649C 25.8705 12.5323 26.0105 12.4017 26.1505 12.257L 26.1505 10.829C 25.5905 10.8477 25.1145 10.892 24.7225 10.962C 24.3305 11.032 24.0108 11.123 23.7635 11.235C 23.5208 11.347 23.3435 11.4823 23.2315 11.641C 23.1195 11.795 23.0635 11.9653 23.0635 12.152C 23.0635 12.334 23.0915 12.4903 23.1475 12.621C 23.2081 12.7517 23.2898 12.859 23.3925 12.943C 23.4951 13.0223 23.6141 13.083 23.7495 13.125C 23.8895 13.1623 24.0388 13.181 24.1975 13.181Z"/>
</defs>
</svg>
