<svg width="103" height="30" viewBox="0 0 103 30" version="1.1" xmlns="http://www.w3.org/2000/svg" xmlns:xlink="http://www.w3.org/1999/xlink">
<title>logo</title>
<desc>Created using Figma</desc>
<g id="Canvas" transform="translate(5990 -3547)">
<rect x="-5990" y="3547" width="103" height="30" fill="#E5E5E5"/>
<clipPath id="clip-0" clip-rule="evenodd">
<path d="M -6102 2593L -4662 2593L -4662 3617L -6102 3617L -6102 2593Z" fill="#FFFFFF"/>
</clipPath>
<g id="Sem projetos" clip-path="url(#clip-0)">
<path d="M -6102 2593L -4662 2593L -4662 3617L -6102 3617L -6102 2593Z" fill="#FFFFFF"/>
<g id="Footer">
<g id="Rectangle 2">
<use xlink:href="#path0_fill" transform="translate(-6116 3508)" fill="#FFFFFF"/>
</g>
<g id="logo">
<g id="Group">
<g id="Group">
<g id="Group">
<g id="Vector">
<use xlink:href="#path1_fill" transform="translate(-5990 3557.97)" fill="#BDBDBD"/>
</g>
<g id="Vector">
<use xlink:href="#path2_fill" transform="translate(-5977.43 3562.16)" fill="#BDBDBD"/>
</g>
<g id="Vector">
<use xlink:href="#path3_fill" transform="translate(-5936.47 3559.92)" fill="#BDBDBD"/>
</g>
<g id="Vector">
<use xlink:href="#path4_fill" transform="translate(-5965.49 3547)" fill="#BDBDBD"/>
</g>
</g>
</g>
</g>
<g id="Beta">
<use xlink:href="#path5_fill" transform="translate(-5913.87 3554.5)" fill="#BDBDBD"/>
</g>
</g>
</g>
</g>
</g>
<defs>
<path id="path0_fill" d="M 0 0L 1467 0L 1467 108.598L 0 108.598L 0 0Z"/>
<path id="path1_fill" fill-rule="evenodd" d="M 7.93806 9.39337C 7.93806 10.8928 6.74735 11.9071 5.49049 11.9071C 4.21158 11.9071 3.04292 10.9148 3.04292 9.39337L 3.04292 1.68229e-07L 0 1.68229e-07L 0 9.39337C 0 12.7009 2.57987 14.8177 5.49049 14.8177C 8.37906 14.8177 10.9589 12.7009 10.9589 9.39337L 10.9589 1.68229e-07L 7.93806 1.68229e-07L 7.93806 9.39337Z"/>
<path id="path2_fill" fill-rule="evenodd" d="M 5.84329 -6.72917e-07C 4.60848 -6.72917e-07 3.41777 0.529203 2.93267 1.43326L 2.93267 0.220501L 0 0.220501L 0 14.8398L 2.93267 14.8398L 2.93267 8.84211C 3.41777 9.74617 4.60848 10.2533 5.84329 10.2533C 8.40111 10.2533 10.6502 8.26881 10.6502 5.11564C 10.6502 2.00656 8.40111 -6.72917e-07 5.84329 -6.72917e-07ZM 5.29204 7.475C 4.07928 7.475 2.99882 6.61505 2.99882 5.13769C 2.99882 3.72648 4.05723 2.75627 5.29204 2.75627C 6.5489 2.75627 7.58525 3.68238 7.58525 5.13769C 7.58525 6.5489 6.5489 7.475 5.29204 7.475Z"/>
<path id="path3_fill" fill-rule="evenodd" d="M 10.2401 8.7425C 8.58638 9.69066 6.44752 10.3522 4.57325 9.60246C 3.29434 9.09531 2.58874 7.83845 2.65489 6.58159C 4.463 7.06669 6.31521 7.30924 8.07922 6.49339C 9.60069 5.78778 10.9457 4.20017 10.637 2.43616C 9.95349 -1.46672 4.48505 0.098842 2.47849 1.77465C -0.123431 3.95762 -0.983386 7.83845 1.39803 10.5286C 3.99995 13.4612 8.54228 12.8218 11.6072 11.0357C 13.0626 10.1758 11.7396 7.88255 10.2401 8.7425ZM 7.48387 2.65666C 8.69663 3.14176 7.06492 4.08992 6.38137 4.28837C 5.52141 4.50887 4.66145 4.37657 3.8015 4.15607C 4.79375 3.11971 6.33727 2.19361 7.48387 2.65666Z"/>
<path id="path4_fill" fill-rule="evenodd" d="M 42.8798 2.1727C 41.1598 1.18045 39.3517 0.452791 37.4113 0.0338384C 35.7575 -0.318964 35.0519 2.19475 36.7057 2.56961C 37.3231 2.70191 37.8964 2.85626 38.4697 3.05471C 32.1854 4.57617 27.8636 9.27285 25.5263 14.9618C 24.4679 12.7347 22.3952 11.1912 19.8373 11.3676C 15.7801 11.6322 13.4428 14.8736 12.0316 18.4678C 11.2819 17.0566 10.0691 16.0643 8.12871 16.0643C 5.96779 16.0643 4.38018 17.3432 3.32178 19.0411C 2.96897 18.578 2.55002 18.2252 2.02082 18.0047C 0.477307 17.3653 -0.867752 19.6144 0.697808 20.2759C 1.88852 20.783 1.91057 22.7896 1.82237 23.8701C 1.69007 25.5679 4.31403 25.5459 4.46838 23.8701C 4.62273 21.9296 5.72524 18.6883 8.15076 18.6883C 10.4881 18.6883 10.5322 22.2604 10.5542 23.8701C 10.5763 25.3033 12.8254 25.7223 13.1341 24.2229C 13.8617 20.6728 15.2068 14.9177 19.4625 14.0798C 24.093 13.1757 23.8725 19.3057 23.6079 22.7455C 23.5638 23.1203 23.5418 23.4952 23.5197 23.8701C 23.4095 25.5679 26.0114 25.5459 26.1657 23.8701C 26.1878 23.5173 26.2319 23.1424 26.2539 22.7675C 27.0698 14.9618 31.4578 7.42064 39.4399 5.54638C 39.043 6.25198 38.6461 6.95759 38.2492 7.66319C 37.4113 9.14055 39.7045 10.4636 40.5204 8.9862C 41.4685 7.31039 42.3947 5.65663 43.3428 3.98082C 43.6956 3.36341 43.4972 2.54756 42.8798 2.1727Z"/>
<path id="path5_fill" d="M 0.679 14L 1.918 3.969L 4.886 3.969C 5.40867 3.969 5.85667 4.02267 6.23 4.13C 6.608 4.23267 6.91833 4.382 7.161 4.578C 7.40367 4.76933 7.58333 5.005 7.7 5.285C 7.81667 5.56033 7.875 5.86833 7.875 6.209C 7.875 6.50767 7.83067 6.79233 7.742 7.063C 7.658 7.33367 7.52967 7.58333 7.357 7.812C 7.18433 8.04067 6.96733 8.24367 6.706 8.421C 6.44933 8.59833 6.14833 8.74067 5.803 8.848C 6.405 8.98333 6.85767 9.22133 7.161 9.562C 7.46433 9.898 7.616 10.3273 7.616 10.85C 7.616 11.312 7.532 11.7367 7.364 12.124C 7.20067 12.5067 6.96267 12.838 6.65 13.118C 6.33733 13.398 5.95467 13.615 5.502 13.769C 5.054 13.923 4.54767 14 3.983 14L 0.679 14ZM 2.555 9.415L 2.114 12.964L 4.088 12.964C 4.45667 12.964 4.781 12.915 5.061 12.817C 5.341 12.719 5.57433 12.579 5.761 12.397C 5.94767 12.215 6.08767 11.9957 6.181 11.739C 6.27433 11.4823 6.321 11.193 6.321 10.871C 6.321 10.4277 6.17167 10.0753 5.873 9.814C 5.57433 9.548 5.124 9.415 4.522 9.415L 2.555 9.415ZM 2.667 8.491L 4.284 8.491C 4.662 8.491 4.991 8.442 5.271 8.344C 5.55567 8.24133 5.79133 8.10133 5.978 7.924C 6.16933 7.742 6.31167 7.525 6.405 7.273C 6.49833 7.021 6.545 6.74333 6.545 6.44C 6.545 5.95933 6.40033 5.6 6.111 5.362C 5.82167 5.11933 5.37367 4.998 4.767 4.998L 3.101 4.998L 2.667 8.491ZM 14.5068 8.428C 14.5068 8.736 14.4438 9.02067 14.3178 9.282C 14.1918 9.53867 13.9608 9.772 13.6248 9.982C 13.2888 10.1873 12.8268 10.367 12.2388 10.521C 11.6508 10.675 10.8948 10.7987 9.97084 10.892C 9.96618 10.9433 9.96384 10.9947 9.96384 11.046C 9.96384 11.0927 9.96384 11.1417 9.96384 11.193C 9.96384 11.8183 10.0992 12.2967 10.3698 12.628C 10.6452 12.9547 11.0582 13.118 11.6088 13.118C 11.8328 13.118 12.0312 13.0947 12.2038 13.048C 12.3812 13.0013 12.5375 12.9453 12.6728 12.88C 12.8128 12.81 12.9342 12.7353 13.0368 12.656C 13.1442 12.572 13.2422 12.4973 13.3308 12.432C 13.4195 12.362 13.5012 12.3037 13.5758 12.257C 13.6505 12.2103 13.7252 12.187 13.7998 12.187C 13.8838 12.187 13.9608 12.2267 14.0308 12.306L 14.3388 12.691C 14.1008 12.9383 13.8675 13.1507 13.6388 13.328C 13.4148 13.5007 13.1838 13.6453 12.9458 13.762C 12.7078 13.8787 12.4582 13.9627 12.1968 14.014C 11.9402 14.07 11.6625 14.098 11.3638 14.098C 10.9578 14.098 10.5938 14.0303 10.2718 13.895C 9.94984 13.7597 9.67684 13.5683 9.45284 13.321C 9.22884 13.069 9.05618 12.7657 8.93484 12.411C 8.81351 12.0563 8.75284 11.6597 8.75284 11.221C 8.75284 10.857 8.79018 10.4953 8.86484 10.136C 8.94418 9.772 9.05618 9.42667 9.20084 9.1C 9.35018 8.77333 9.52984 8.47 9.73984 8.19C 9.95451 7.91 10.1972 7.66967 10.4678 7.469C 10.7432 7.26367 11.0442 7.10267 11.3708 6.986C 11.7022 6.86933 12.0568 6.811 12.4348 6.811C 12.7942 6.811 13.1045 6.86233 13.3658 6.965C 13.6272 7.06767 13.8418 7.19833 14.0098 7.357C 14.1778 7.51567 14.3015 7.69067 14.3808 7.882C 14.4648 8.07333 14.5068 8.25533 14.5068 8.428ZM 12.3648 7.707C 12.0708 7.707 11.8002 7.76767 11.5528 7.889C 11.3055 8.01033 11.0862 8.17833 10.8948 8.393C 10.7035 8.603 10.5402 8.85267 10.4048 9.142C 10.2695 9.42667 10.1645 9.73467 10.0898 10.066C 10.8085 9.97733 11.3848 9.877 11.8188 9.765C 12.2528 9.64833 12.5865 9.52467 12.8198 9.394C 13.0532 9.25867 13.2072 9.114 13.2818 8.96C 13.3565 8.806 13.3938 8.645 13.3938 8.477C 13.3938 8.393 13.3752 8.30667 13.3378 8.218C 13.3005 8.12467 13.2398 8.04067 13.1558 7.966C 13.0765 7.89133 12.9715 7.83067 12.8408 7.784C 12.7102 7.73267 12.5515 7.707 12.3648 7.707ZM 15.906 12.663C 15.906 12.635 15.906 12.6 15.906 12.558C 15.9106 12.5113 15.9153 12.446 15.92 12.362C 15.9293 12.278 15.941 12.1683 15.955 12.033C 15.969 11.8977 15.99 11.7203 16.018 11.501L 16.459 7.952L 15.668 7.952C 15.6073 7.952 15.556 7.93567 15.514 7.903C 15.4766 7.86567 15.458 7.80967 15.458 7.735C 15.458 7.721 15.4603 7.693 15.465 7.651C 15.4696 7.609 15.4743 7.56233 15.479 7.511C 15.4883 7.455 15.4953 7.399 15.5 7.343C 15.5093 7.287 15.5163 7.23333 15.521 7.182L 16.613 7.035L 17.138 4.844C 17.1566 4.774 17.1916 4.718 17.243 4.676C 17.2943 4.62933 17.3573 4.606 17.432 4.606L 18.09 4.606L 17.782 7.049L 19.644 7.049L 19.539 7.952L 17.67 7.952L 17.243 11.438C 17.2196 11.6293 17.201 11.7833 17.187 11.9C 17.1776 12.0167 17.1683 12.11 17.159 12.18C 17.1543 12.25 17.1496 12.299 17.145 12.327C 17.145 12.355 17.145 12.376 17.145 12.39C 17.145 12.628 17.1986 12.8053 17.306 12.922C 17.418 13.034 17.5696 13.09 17.761 13.09C 17.8823 13.09 17.9896 13.0737 18.083 13.041C 18.1763 13.0037 18.2556 12.964 18.321 12.922C 18.391 12.88 18.4493 12.8427 18.496 12.81C 18.5426 12.7727 18.5846 12.754 18.622 12.754C 18.6593 12.754 18.6873 12.7633 18.706 12.782C 18.7293 12.8007 18.7526 12.831 18.776 12.873L 19.035 13.468C 18.811 13.6687 18.552 13.8273 18.258 13.944C 17.9686 14.056 17.677 14.112 17.383 14.112C 16.9303 14.112 16.5733 13.9883 16.312 13.741C 16.0506 13.4937 15.9153 13.1343 15.906 12.663ZM 25.3038 14L 24.6598 14C 24.4965 14 24.3845 13.958 24.3238 13.874C 24.2678 13.79 24.2398 13.6873 24.2398 13.566L 24.3658 12.131C 24.1978 12.4297 24.0158 12.7003 23.8198 12.943C 23.6285 13.1857 23.4231 13.3933 23.2038 13.566C 22.9891 13.734 22.7628 13.8647 22.5248 13.958C 22.2868 14.0513 22.0395 14.098 21.7828 14.098C 21.5028 14.098 21.2485 14.0443 21.0198 13.937C 20.7911 13.825 20.5951 13.664 20.4318 13.454C 20.2731 13.2393 20.1495 12.978 20.0608 12.67C 19.9721 12.3573 19.9278 12.0003 19.9278 11.599C 19.9278 11.179 19.9791 10.7707 20.0818 10.374C 20.1891 9.97267 20.3385 9.59467 20.5298 9.24C 20.7258 8.88533 20.9591 8.561 21.2298 8.267C 21.5005 7.96833 21.8015 7.71167 22.1328 7.497C 22.4688 7.27767 22.8281 7.10967 23.2108 6.993C 23.5935 6.87167 23.9948 6.811 24.4148 6.811C 24.7181 6.811 25.0121 6.83667 25.2968 6.888C 25.5861 6.93467 25.8708 7.01867 26.1508 7.14L 25.3038 14ZM 22.2518 13.062C 22.4805 13.062 22.7045 12.992 22.9238 12.852C 23.1431 12.7073 23.3508 12.509 23.5468 12.257C 23.7428 12.005 23.9248 11.7063 24.0928 11.361C 24.2655 11.011 24.4171 10.6283 24.5478 10.213L 24.8488 7.777C 24.7461 7.75367 24.6435 7.73967 24.5408 7.735C 24.4428 7.72567 24.3448 7.721 24.2468 7.721C 23.9668 7.721 23.6961 7.76767 23.4348 7.861C 23.1735 7.94967 22.9285 8.07567 22.6998 8.239C 22.4711 8.40233 22.2635 8.59833 22.0768 8.827C 21.8901 9.051 21.7291 9.29833 21.5938 9.569C 21.4631 9.83967 21.3605 10.129 21.2858 10.437C 21.2111 10.7403 21.1738 11.053 21.1738 11.375C 21.1738 12.4997 21.5331 13.062 22.2518 13.062Z"/>
</defs>
</svg>
