<?xml version="1.0" standalone="no"?>
<!DOCTYPE svg PUBLIC "-//W3C//DTD SVG 1.1//EN" "http://www.w3.org/Graphics/SVG/1.1/DTD/svg11.dtd" >
<svg xmlns="http://www.w3.org/2000/svg">
<metadata>Generated by IcoMoon</metadata>
<defs>
<font id="upicons" horiz-adv-x="1024">
<font-face units-per-em="1024" ascent="942.08" descent="-81.92" />
<missing-glyph horiz-adv-x="1024" />
<glyph unicode="&#x20;" horiz-adv-x="512" d="" />
<glyph unicode="&#xe900;" glyph-name="activity" d="M85.333 384h192c17.067 0 34.133 12.8 38.4 29.867l89.6 264.533 217.6-648.533c4.267-17.067 21.333-29.867 38.4-29.867s34.133 12.8 38.4 29.867l119.467 354.133h119.467c25.6 0 42.667 17.067 42.667 42.667s-17.067 42.667-42.667 42.667h-149.333c-17.067 0-34.133-12.8-38.4-29.867l-89.6-264.533-217.6 648.533c-4.267 17.067-21.333 29.867-38.4 29.867s-34.133-12.8-38.4-29.867l-119.467-354.133h-162.133c-25.6 0-42.667-17.067-42.667-42.667s17.067-42.667 42.667-42.667z" />
<glyph unicode="&#xe901;" glyph-name="alert-circle" d="M512-42.666c260.267 0 469.333 209.067 469.333 469.333s-209.067 469.333-469.333 469.333c-260.267 0-469.333-209.067-469.333-469.333s213.333-469.333 469.333-469.333zM512 810.667c213.333 0 384-170.667 384-384s-170.667-384-384-384c-213.333 0-384 170.667-384 384s174.933 384 384 384zM512 384c25.6 0 42.667 17.067 42.667 42.667v170.667c0 25.6-17.067 42.667-42.667 42.667s-42.667-17.067-42.667-42.667v-170.667c0-25.6 17.067-42.667 42.667-42.667zM482.133 285.867c-4.267-4.267-8.534-8.533-8.534-12.8s-4.267-12.8-4.267-17.067c0-4.267 0-12.8 4.267-17.067 0-4.267 4.267-8.533 8.534-12.8 8.533-8.533 21.333-12.8 29.867-12.8 4.267 0 12.8 0 17.067 4.267s8.533 4.267 12.8 8.533c8.533 8.533 12.8 21.333 12.8 29.867 0 12.8-4.267 21.333-12.8 29.867-12.8 17.067-42.667 17.067-59.733 0z" />
<glyph unicode="&#xe902;" glyph-name="alert-triangle" d="M105.89 14.84c17.067-12.8 42.667-17.067 64-17.067h725.333c34.133 0 68.267 12.8 89.6 38.4 25.6 25.6 38.4 55.467 38.4 89.6 0 21.333-4.267 42.667-17.067 64l-362.667 601.602c-38.4 59.733-115.2 81.067-174.933 42.667-17.067-8.533-34.133-25.6-42.667-42.667l-366.933-601.602c-34.133-59.733-12.8-140.8 46.933-174.933zM131.49 147.106l362.667 601.602c4.267 4.267 8.533 12.8 12.8 12.8 8.533 4.267 21.333 8.533 34.133 4.267s21.333-8.533 25.6-17.067l362.667-601.602c4.267-4.267 4.267-12.8 4.267-21.333 0-12.8-4.267-21.333-12.8-29.867s-17.067-12.8-29.867-12.8h-721.067c-8.533 0-12.8 0-21.333 4.267-21.333 12.8-25.6 38.4-17.067 59.733zM528.213 339.115c25.6 0 42.667 17.067 42.667 42.667v170.667c0 25.6-17.067 42.667-42.667 42.667s-42.667-17.067-42.667-42.667v-170.667c0-25.6 17.067-42.667 42.667-42.667zM562.347 236.694c0 4.267-4.266 4.267-8.533 4.267s-4.268 4.267-8.534 4.267c-4.267 0-4.266 0-8.533 4.267-12.8 4.267-29.867 0-38.4-12.8-8.533-8.533-12.8-17.067-12.8-29.867s4.267-21.333 12.8-29.867c4.267-4.267 8.533-8.533 12.8-8.533s8.533-4.267 17.066-4.267c4.267 0 4.267 0 8.533 0s4.266 0 8.533 0 4.268 4.267 8.534 4.267c4.267 0 4.266 4.267 8.533 4.267 4.267 4.267 8.533 8.533 8.533 12.8s0 4.267 4.267 8.533c0 4.267 0 4.267 0 8.533s0 12.8-4.267 17.067c-4.267 8.533-8.533 12.8-8.533 17.067z" />
<glyph unicode="&#xe903;" glyph-name="arrow-down" d="M738.133 366.934l-183.466-183.467v584.533c0 25.6-17.067 42.667-42.667 42.667s-42.667-17.067-42.667-42.667v-584.533l-183.467 183.467c-8.533 8.533-21.333 12.8-29.867 12.8s-21.333-4.267-29.867-12.8c-17.067-17.067-17.067-42.667 0-59.733l256-256c17.067-17.067 42.668-17.067 59.734 0l256 256c17.067 17.067 17.067 42.667 0 59.733s-42.668 17.067-59.734 0z" />
<glyph unicode="&#xe904;" glyph-name="arrow-left" d="M456.533 198.401l-183.467 183.466h584.533c25.6 0 42.667 17.067 42.667 42.667s-17.067 42.667-42.667 42.667h-584.533l183.467 183.467c8.533 8.533 12.8 21.333 12.8 29.867s-4.267 21.333-12.8 29.867c-17.067 17.067-42.667 17.067-59.733 0l-256-256c-17.067-17.067-17.067-42.668 0-59.734l256-256c17.067-17.067 42.667-17.067 59.733 0s17.067 42.668 0 59.734z" />
<glyph unicode="&#xe905;" glyph-name="arrow-right" d="M569.6 650.667l183.467-183.466h-584.533c-25.6 0-42.667-17.067-42.667-42.667s17.067-42.667 42.667-42.667h584.533l-183.467-183.467c-8.533-8.533-12.8-21.333-12.8-29.867s4.267-21.333 12.8-29.867c17.067-17.067 42.667-17.067 59.733 0l256 256c17.067 17.067 17.067 42.668 0 59.734l-256 256c-17.067 17.067-42.667 17.067-59.733 0s-17.067-42.668 0-59.734z" />
<glyph unicode="&#xe906;" glyph-name="arrow-up" d="M288 482.134l183.466 183.467v-584.533c0-25.6 17.067-42.667 42.667-42.667s42.667 17.067 42.667 42.667v584.533l183.467-183.467c8.533-8.533 21.333-12.8 29.867-12.8s21.333 4.267 29.867 12.8c17.067 17.067 17.067 42.667 0 59.733l-256 256c-17.067 17.067-42.668 17.067-59.734 0l-256-256c-17.067-17.067-17.067-42.667 0-59.733s42.668-17.067 59.734 0z" />
<glyph unicode="&#xe907;" glyph-name="at-sign" d="M178.27 756.791c-119.467-119.467-162.134-290.132-119.468-456.532 29.867-106.667 98.133-204.8 192-264.533 81.067-51.2 170.667-76.8 260.268-76.8 102.4 0 200.533 34.133 285.867 98.133 17.067 12.8 21.333 42.667 8.533 59.733s-42.667 21.333-59.733 8.533c-132.267-98.133-307.2-106.667-448-12.8-76.8 46.933-132.267 128-153.6 213.333-34.133 136.533 0.001 277.332 98.134 375.465s234.667 136.534 371.2 102.4c166.4-42.667 285.867-196.267 285.867-375.465v-38.4c0-25.6-12.8-51.2-34.133-68.267s-51.2-21.333-81.067-12.8c-34.133 8.533-55.467 46.933-55.467 85.333v25.6c0 12.8-8.533 25.6-17.067 34.133-12.8 106.665-102.4 187.732-209.067 187.732-119.468 0-213.335-93.867-213.335-213.332 0-119.467 93.867-213.333 213.335-213.333 68.267 0 128 34.133 166.4 81.067 21.333-34.133 51.2-64 89.6-72.533 55.467-17.067 110.933-8.533 153.6 25.6s68.267 85.333 68.267 136.533v34.133c0 217.599-145.067 409.598-349.867 460.799-166.401 42.667-337.067-4.267-452.267-123.733zM498.27 295.992c-72.533 0-128 55.467-128 128 0 72.532 55.467 127.998 128 127.998s128-55.467 128-127.998c0-72.533-59.733-128-128-128z" />
<glyph unicode="&#xe908;" glyph-name="attach" d="M948.267 466.658c-17.067 17.065-42.667 17.065-59.733 0l-392.533-392.533c-85.333-81.067-217.6-81.067-302.933 0-85.333 85.333-85.333 217.6 0 302.933l392.533 392.532c51.2 51.2 132.267 51.2 179.2 0 51.2-51.2 51.2-132.267 0-179.2l-392.533-392.532c-17.067-17.067-42.667-17.067-59.733 0s-17.067 42.667 0 59.733l362.667 362.665c17.067 17.067 17.067 42.667 0 59.733s-42.667 17.067-59.733 0l-362.667-362.665c-51.2-51.2-51.2-132.267 0-179.2s132.268-51.2 179.201 0l392.533 392.532c85.333 85.333 85.333 217.6 0 302.933s-217.6 81.067-302.933 0l-392.533-392.532c-115.2-115.2-115.2-307.2 0-422.4 59.733-59.733 136.533-85.333 213.333-85.333s153.6 29.867 213.333 85.333l392.533 392.533c17.067 12.8 17.067 42.667 0 55.467z" />
<glyph unicode="&#xe909;" glyph-name="award" d="M851.913 598.043c0 187.343-153.28 340.624-340.622 340.624s-340.624-153.281-340.624-340.624c0-110.704 51.094-208.633 131.992-268.242l-46.836-366.17c-4.258-17.033 4.258-34.061 17.031-42.577s29.805-8.516 46.836 0l191.601 114.961 191.6-114.961c8.516-4.258 12.774-4.258 21.291-4.258s17.028 4.258 21.286 8.516c12.774 8.516 21.291 25.545 17.033 42.577l-46.835 361.911c85.154 59.61 136.247 157.538 136.247 268.242zM255.823 598.043c0 140.507 114.961 255.468 255.468 255.468s255.468-114.961 255.468-255.468c0-140.507-114.961-255.468-255.468-255.468s-255.468 114.961-255.468 255.468zM673.088 40.273l-136.251 80.896c-12.773 8.516-29.804 8.516-42.578 0l-136.25-80.896 34.063 242.692c38.32-17.033 80.898-25.545 127.734-25.545s89.414 8.512 127.733 25.545l25.549-242.692z" />
<glyph unicode="&#xe90a;" glyph-name="bar-code" d="M375.466 170.667c25.6 0 42.667 17.067 42.667 42.667v597.333c0 25.6-17.067 42.667-42.667 42.667-8.533 0-29.865 0-38.399 0-25.6 0-42.666-17.067-42.666-42.667v-597.333c0-25.6 17.067-42.667 42.666-42.667 4.267 0 29.865 0 38.399 0zM981.333 853.334c-25.6 0-42.667-17.067-42.667-42.667v-768c0-25.6 17.067-42.667 42.667-42.667s42.667 17.067 42.667 42.667v768c0 25.6-21.333 42.667-42.667 42.667zM196.266 170.667c25.6 0 42.667 17.067 42.667 42.667v597.333c0 25.6-17.067 42.667-42.667 42.667s-42.667-17.067-42.667-42.667v-597.333c0-25.6 21.333-42.667 42.667-42.667zM554.667 810.667c0 25.6-17.067 42.667-42.667 42.667s-42.667-17.067-42.667-42.667v-597.333c0-25.6 17.067-42.667 42.667-42.667s42.667 17.067 42.667 42.667v597.333zM665.599 853.334c-25.6 0-42.667-17.067-42.667-42.667v-597.333c0-25.6 17.067-42.667 42.667-42.667s42.667 17.067 42.667 42.667v597.333c0 25.6-17.067 42.667-42.667 42.667zM844.8 853.334c-8.533 0-29.865 0-38.399 0-25.6 0-42.666-17.067-42.666-42.667v-597.333c0-25.6 17.067-42.667 42.666-42.667 8.533 0 29.865 0 38.399 0 25.6 0 42.667 17.067 42.667 42.667v597.333c0 25.6-21.333 42.667-42.667 42.667zM42.667 853.334c-25.6 0-42.667-17.067-42.667-42.667v-768c0-25.6 17.067-42.667 42.667-42.667s42.667 17.067 42.667 42.667v768c0 25.6-21.333 42.667-42.667 42.667zM234.667 85.334h-42.667c-25.6 0-42.667-17.067-42.667-42.667s17.067-42.667 42.667-42.667h42.667c25.6 0 42.667 17.067 42.667 42.667s-17.067 42.667-42.667 42.667zM435.2 85.334h-42.667c-25.6 0-42.667-17.067-42.667-42.667s17.067-42.667 42.667-42.667h42.667c25.6 0 42.667 17.067 42.667 42.667s-21.333 42.667-42.667 42.667zM832 85.334h-42.667c-25.6 0-42.667-17.067-42.667-42.667s17.067-42.667 42.667-42.667h42.667c25.6 0 42.667 17.067 42.667 42.667s-17.067 42.667-42.667 42.667z" />
<glyph unicode="&#xe90b;" glyph-name="bell-off" d="M810.709 358.388c25.6 0 42.667 17.067 42.667 42.667v149.332c0 38.4-4.267 68.267-12.8 98.134-29.867 102.4-102.402 183.466-200.535 221.866s-204.8 29.867-294.4-21.333c-21.333-12.8-29.867-38.4-17.067-59.733s38.4-29.867 59.734-17.067c68.267 38.4 149.333 42.667 221.867 12.8s128-89.6 149.335-166.4c4.267-21.333 8.533-46.933 8.533-76.8v-140.8c0-25.6 17.067-42.667 42.667-42.667zM725.333 273.067l-439.467 439.467c0 12.8-8.533 29.867-21.333 34.133-4.267 4.267-12.8 4.267-17.067 4.267l-174.933 174.933c-17.067 17.067-42.667 17.067-59.733 0s-17.067-42.667 0-59.733l179.2-179.2c-12.8-38.4-21.333-76.8-21.333-115.2v-213.333c0-46.933-38.4-85.333-85.333-85.333-25.6 0-42.667-17.067-42.667-42.667s17.067-42.667 42.667-42.667h605.867l260.267-260.267c8.533-8.533 21.333-12.8 29.867-12.8s21.333 4.267 29.867 12.8c17.067 17.067 17.067 42.667 0 59.733l-243.2 243.2c0 25.6-17.067 42.667-42.667 42.667zM234.667 273.067c12.8 25.6 21.333 55.467 21.333 85.333v213.333c0 17.067 0 29.867 4.267 46.933l345.6-345.6h-371.2zM550.254 64.002c-12.8-21.334-38.4-25.6-59.733-17.067-8.533 4.267-12.8 8.533-17.066 17.067-12.8 21.333-38.4 25.6-59.734 17.067-21.333-12.8-25.6-38.4-17.066-59.734 12.8-21.333 25.6-34.133 46.933-46.933s42.667-17.067 64-17.067c42.667 0 85.333 21.333 110.933 64 12.8 21.333 4.267 46.934-17.066 59.734-12.8 12.8-42.667 4.267-51.2-17.067z" />
<glyph unicode="&#xe90c;" glyph-name="bell" d="M85.333 172.024h853.333c25.6 0 42.667 17.067 42.667 42.667s-17.067 42.667-42.667 42.667c-46.933 0-85.333 38.4-85.333 85.333v213.334c0 98.133-42.667 192-115.2 256s-170.667 93.867-268.8 81.067c-170.667-21.333-298.667-170.667-298.667-349.867v-200.534c0-46.933-38.4-85.333-85.333-85.333-25.6 0-42.667-17.067-42.667-42.667s17.067-42.667 42.667-42.667zM256 342.69v200.534c0 136.533 98.134 251.733 221.867 264.533 76.8 8.533 145.067-12.8 200.533-64 55.467-46.933 85.333-119.467 85.333-192v-213.334c0-29.867 8.533-59.733 21.333-85.333h-558.934c21.333 29.867 29.867 59.733 29.867 89.6zM456.388-41.299c21.333-12.8 42.667-17.067 64-17.067 12.8 0 21.332 0 34.132 4.267 34.133 8.533 59.733 29.867 76.8 59.733 12.8 21.333 4.267 46.934-17.066 59.734s-46.933 4.267-59.733-17.067c-4.267-8.533-12.8-17.067-25.6-21.334s-21.333 0-34.133 4.267c-4.267 4.267-12.8 8.533-17.066 17.067-12.8 21.333-38.401 25.6-59.735 17.067-21.333-12.8-25.6-38.4-17.066-59.734 17.067-17.067 34.134-34.133 55.468-46.933z" />
<glyph unicode="&#xe90d;" glyph-name="book" d="M277.333-42.666h576c25.6 0 42.667 17.067 42.667 42.667v853.333c0 25.6-17.067 42.667-42.667 42.667h-576c-81.067 0-149.333-68.267-149.333-149.333v-640c0-81.067 68.267-149.333 149.333-149.333zM277.333 42.667c-34.133 0-59.733 25.6-64 55.467 0 4.267 0 4.267 0 8.533 0 34.133 29.867 64 64 64h533.333v-128h-533.333zM277.333 810.667h533.333v-554.667h-529.066c-25.6 0-46.934-4.267-68.267-17.067v507.733c0 34.133 29.867 64 64 64z" />
<glyph unicode="&#xe90e;" glyph-name="box-3d" d="M119.467 123.734l341.333-170.667c17.067-8.533 38.4-12.8 55.467-12.8 21.333 0 38.4 4.267 55.467 12.8l341.333 170.667c42.667 21.333 72.533 64 72.533 115.2v405.334c0 8.533 0 21.333-4.267 29.866 4.267 12.8 4.267 25.6 0 34.134-4.267 12.8-17.067 21.333-29.867 21.333-8.533 12.8-21.333 21.333-38.4 25.6l-341.333 170.667c-34.133 17.067-76.8 17.067-115.2 0l-341.333-170.667c-42.667-21.333-72.533-64-72.533-115.2v-405.333c4.267-46.933 29.867-89.6 76.8-110.933zM153.6 200.534c-12.8 8.533-25.6 21.333-21.333 38.4v396.8l341.333-170.666v-422.4l-320 157.867zM874.667 200.534l-315.733-157.867v409.6l341.333 170.667v-384c0-17.067-8.533-34.133-25.6-38.4zM499.2 853.334c4.267 4.267 12.8 4.267 17.067 4.267s12.8 0 17.067-4.267l320-157.867-324.267-162.133-337.067 170.667 307.2 149.333z" />
<glyph unicode="&#xe90f;" glyph-name="brieftcase" d="M853.333-0c72.533 0 128 55.467 128 128v426.667c0 72.533-55.467 128-128 128h-128v42.667c0 72.533-55.467 128-128 128h-170.667c-72.533 0-128-55.467-128-128v-42.667h-128c-72.533 0-128-55.467-128-128v-426.667c0-72.533 55.467-128 128-128h682.667zM853.333 597.334c25.6 0 42.667-17.067 42.667-42.667v-426.667c0-25.6-17.067-42.667-42.667-42.667h-128v512h128zM640 85.334h-256v512h256v-512zM384 725.334c0 25.6 17.067 42.667 42.667 42.667h170.667c25.6 0 42.667-17.067 42.667-42.667v-42.667h-256v42.667zM128 128v426.667c0 25.6 17.067 42.667 42.667 42.667h128v-512h-128c-25.6 0-42.667 17.067-42.667 42.667z" />
<glyph unicode="&#xe910;" glyph-name="calendar" d="M341.333 896c-25.6 0-42.667-17.067-42.667-42.667v-42.667h-85.333c-72.533 0-128-55.467-128-128v-597.333c0-72.533 55.467-128 128-128h597.333c72.533 0 128 55.467 128 128v597.333c0 72.533-55.467 128-128 128h-85.333v42.667c0 25.6-17.067 42.667-42.667 42.667s-42.667-17.067-42.667-42.667v-42.667h-256v42.667c0 25.6-17.067 42.667-42.667 42.667zM810.667 42.667h-597.333c-25.6 0-42.667 17.067-42.667 42.667v384h682.667v-384c0-25.6-17.067-42.667-42.667-42.667zM640 725.334v-42.667c0-25.6 17.067-42.667 42.667-42.667s42.667 17.067 42.667 42.667v42.667h85.333c25.6 0 42.667-17.067 42.667-42.667v-128h-682.667v128c0 25.6 17.067 42.667 42.667 42.667h85.333v-42.667c0-25.6 17.067-42.667 42.667-42.667s42.667 17.067 42.667 42.667v42.667h256z" />
<glyph unicode="&#xe911;" glyph-name="camera-off" d="M153.6 725.334h-8.533c-72.533 0-128-55.467-128-128v-469.333c0-72.533 55.467-128 128-128h733.867l72.533-72.533c8.533-8.533 21.333-12.8 29.867-12.8s21.333 4.267 29.867 12.8c17.067 17.067 17.067 42.667 0 59.733l-55.467 55.467c0 21.333-17.067 42.667-42.667 42.667l-597.333 597.333c0 21.333-17.067 42.667-42.667 42.667l-200.533 200.533c-17.067 17.067-42.667 17.067-59.733 0s-17.067-42.667 0-59.733l140.8-140.8zM145.067 85.334c-25.6 0-42.667 17.067-42.667 42.667v469.333c0 25.6 17.067 42.667 42.667 42.667h93.867l115.2-115.2c-4.267-8.533-12.8-12.8-17.066-21.333-34.133-46.933-42.667-102.4-34.133-157.867s42.667-106.667 89.6-136.533c34.133-25.6 76.8-38.4 119.467-38.4 12.8 0 25.6 0 38.4 4.267 38.4 8.533 72.533 25.6 102.4 51.2l140.8-140.8h-648.533zM593.067 285.867c-17.067-12.8-38.4-25.6-59.733-29.867-34.133-4.267-68.267 0-93.867 21.333-29.867 21.333-46.933 46.933-55.466 81.067-4.267 34.133 0 68.267 21.333 93.867 4.267 4.267 4.266 4.267 8.533 8.533l179.2-174.933zM998.4 170.667c25.6 0 42.667 17.067 42.667 42.667v384c0 72.533-55.467 128-128 128h-149.333l-72.533 110.934c-8.533 12.8-21.333 17.066-34.133 17.066h-256c-25.6 0-42.667-17.067-42.667-42.667s17.067-42.667 42.667-42.667h234.667l72.533-110.934c8.533-12.8 21.333-17.066 34.133-17.066h170.667c25.6 0 42.667-17.067 42.667-42.667v-384c0-25.6 17.067-42.667 42.667-42.667z" />
<glyph unicode="&#xe912;" glyph-name="camera" d="M674.133 836.267c-8.533 12.8-21.333 17.066-34.133 17.066h-256c-12.8 0-25.6-8.533-34.133-17.066l-72.533-110.934h-149.333c-72.533 0-128-55.467-128-128v-469.333c0-72.533 55.467-128 128-128h768c72.533 0 128 55.467 128 128v469.333c0 72.533-55.467 128-128 128h-149.333l-72.533 110.934zM938.667 597.334v-469.333c0-25.6-17.067-42.667-42.667-42.667h-768c-25.6 0-42.667 17.067-42.667 42.667v469.333c0 25.6 17.067 42.667 42.667 42.667h170.667c12.8 0 25.6 8.533 34.133 17.066l72.533 110.934h209.067l72.533-110.934c8.533-12.8 21.333-17.066 34.133-17.066h170.667c29.867 0 46.933-17.067 46.933-42.667zM512 597.334c-119.467 0-213.333-93.867-213.333-213.333s93.867-213.333 213.333-213.333c119.467 0 213.333 93.867 213.333 213.333s-93.867 213.333-213.333 213.333zM512 256c-72.533 0-128 55.467-128 128s55.467 128 128 128c72.533 0 128-55.467 128-128s-55.467-128-128-128z" />
<glyph unicode="&#xe913;" glyph-name="card" d="M896 810.667h-768c-72.533 0-128-55.467-128-128v-512c0-72.533 55.467-128 128-128h768c72.533 0 128 55.467 128 128v512c0 72.533-55.467 128-128 128zM128 725.334h768c25.6 0 42.667-17.067 42.667-42.667v-128h-853.333v128c0 25.6 17.067 42.667 42.667 42.667zM896 128h-768c-25.6 0-42.667 17.067-42.667 42.667v298.667h853.333v-298.667c0-25.6-17.067-42.667-42.667-42.667z" />
<glyph unicode="&#xe914;" glyph-name="cart" d="M341.333 187.734c-72.533 0-128-55.467-128-128s55.467-128 128-128c72.533 0 128 55.467 128 128s-55.467 128-128 128zM341.333 17.067c-25.6 0-42.667 17.067-42.667 42.667s17.067 42.667 42.667 42.667c25.6 0 42.667-17.067 42.667-42.667s-17.067-42.667-42.667-42.667zM853.333 187.734c-72.533 0-128-55.467-128-128s55.467-128 128-128c72.533 0 128 55.467 128 128s-55.467 128-128 128zM853.333 17.067c-25.6 0-42.667 17.067-42.667 42.667s17.067 42.667 42.667 42.667c25.6 0 42.667-17.067 42.667-42.667s-17.067-42.667-42.667-42.667zM371.2 213.334h452.266c0 0 0 0 4.267 0 59.733 0 115.2 42.667 123.733 102.4l72.533 358.4c4.267 12.8 0 25.6-8.533 34.133s-21.333 17.067-34.133 17.067h-704l-12.8 102.4c-8.533 64-64 110.933-128 110.933h-93.867c-25.6 0-42.667-17.067-42.667-42.667s17.067-42.667 42.667-42.667h93.867c21.333 0 38.4-17.067 42.667-38.4l64-490.667c12.8-64 64-110.933 128-110.933zM930.133 640l-59.733-307.2c-4.267-21.333-21.333-34.133-42.667-34.133h-452.267c-21.333 0-38.4 17.067-42.667 38.4l-38.4 302.933h635.734z" />
<glyph unicode="&#xe915;" glyph-name="chart-2-1" d="M938.667-0c25.6 0 42.667 17.067 42.667 42.667v768c0 25.6-17.067 42.667-42.667 42.667h-170.667c-25.6 0-42.667-17.067-42.667-42.667v-768c0-25.6 17.067-42.667 42.667-42.667h170.667zM810.667 768h85.333v-682.667h-85.333v682.667zM597.333-0c25.6 0 42.667 17.067 42.667 42.667v554.667c0 25.6-17.067 42.667-42.667 42.667h-170.667c-25.6 0-42.667-17.067-42.667-42.667v-554.667c0-25.6 17.067-42.667 42.667-42.667h170.667zM469.333 554.667h85.333v-469.333h-85.333v469.333zM85.333-0h170.667c25.6 0 42.667 17.067 42.667 42.667v341.333c0 25.6-17.067 42.667-42.667 42.667h-170.667c-25.6 0-42.667-17.067-42.667-42.667v-341.333c0-25.6 17.067-42.667 42.667-42.667zM128 341.334h85.333v-256h-85.333v256z" />
<glyph unicode="&#xe916;" glyph-name="chart-2" d="M938.667-0c25.6 0 42.667 17.067 42.667 42.667v768c0 25.6-17.067 42.667-42.667 42.667h-170.667c-25.6 0-42.667-17.067-42.667-42.667v-768c0-25.6 17.067-42.667 42.667-42.667h170.667zM810.667 768h85.333v-682.667h-85.333v682.667zM597.333-0c25.6 0 42.667 17.067 42.667 42.667v554.667c0 25.6-17.067 42.667-42.667 42.667h-170.667c-25.6 0-42.667-17.067-42.667-42.667v-554.667c0-25.6 17.067-42.667 42.667-42.667h170.667zM469.333 554.667h85.333v-469.333h-85.333v469.333zM85.333-0h170.667c25.6 0 42.667 17.067 42.667 42.667v341.333c0 25.6-17.067 42.667-42.667 42.667h-170.667c-25.6 0-42.667-17.067-42.667-42.667v-341.333c0-25.6 17.067-42.667 42.667-42.667zM128 341.334h85.333v-256h-85.333v256z" />
<glyph unicode="&#xe917;" glyph-name="chart" d="M426.667-0h170.667c25.6 0 42.667 17.067 42.667 42.667v768c0 25.6-17.067 42.667-42.667 42.667h-170.667c-25.6 0-42.667-17.067-42.667-42.667v-768c0-25.6 17.067-42.667 42.667-42.667zM469.333 768h85.333v-682.667h-85.333v682.667zM725.333 597.334v-554.667c0-25.6 17.067-42.667 42.667-42.667h170.667c25.6 0 42.667 17.067 42.667 42.667v554.667c0 25.6-17.067 42.667-42.667 42.667h-170.667c-25.6 0-42.667-17.067-42.667-42.667zM810.667 554.667h85.333v-469.333h-85.333v469.333zM85.333-0h170.667c25.6 0 42.667 17.067 42.667 42.667v341.333c0 25.6-17.067 42.667-42.667 42.667h-170.667c-25.6 0-42.667-17.067-42.667-42.667v-341.333c0-25.6 17.067-42.667 42.667-42.667zM128 341.334h85.333v-256h-85.333v256z" />
<glyph unicode="&#xe918;" glyph-name="check-circle" d="M22.976 572.311c-55.467-174.935-8.534-358.401 119.466-482.135 89.6-89.6 204.8-132.267 328.534-132.267 51.2 0 106.667 8.533 157.867 25.6 187.733 59.733 311.467 238.933 311.467 443.733v38.4c0 25.601-17.067 42.668-42.667 42.668s-42.667-17.067-42.667-42.668v-38.4c0-166.4-102.4-315.733-251.733-362.667-145.067-46.933-294.399-17.067-401.066 89.6-106.667 102.4-140.801 251.733-98.134 396.801 21.333 64 55.467 119.467 106.667 162.133 119.467 102.4 277.333 123.733 413.867 64 21.333-8.533 46.933 0 55.467 21.333s0 46.934-21.333 55.467c-166.4 76.8-362.666 46.933-503.466-76.8-59.733-55.467-106.667-128-132.267-204.8zM372.907 495.531c-17.067 17.067-42.668 17.067-59.734 0s-17.067-42.667 0-59.733l128-128c8.533-8.533 21.334-12.8 29.867-12.8s21.334 4.267 29.867 12.8l469.333 469.333c17.067 17.067 17.067 42.667 0 59.733s-42.667 17.067-59.733 0l-439.467-439.467-98.133 98.133z" />
<glyph unicode="&#xe919;" glyph-name="check-sign-1" d="M200.534 413.867c-17.067 17.067-42.668 17.067-59.734 0s-17.067-42.667 0-59.733l213.333-213.333c8.533-8.533 21.334-12.8 29.867-12.8s21.334 4.267 29.867 12.8l469.333 469.333c17.067 17.067 17.067 42.667 0 59.733s-42.667 17.067-59.733 0l-439.467-439.467-183.466 183.467z" />
<glyph unicode="&#xe91a;" glyph-name="check-sign" d="M200.534 413.867c-17.067 17.067-42.668 17.067-59.734 0s-17.067-42.667 0-59.733l213.333-213.333c8.533-8.533 21.334-12.8 29.867-12.8s21.334 4.267 29.867 12.8l469.333 469.333c17.067 17.067 17.067 42.667 0 59.733s-42.667 17.067-59.733 0l-439.467-439.467-183.466 183.467z" />
<glyph unicode="&#xe91b;" glyph-name="chevron-down" d="M541.867 268.8l256 256c17.067 17.067 17.067 42.667 0 59.734s-42.667 17.067-59.733 0l-226.133-226.133-226.133 226.133c-8.533 8.533-21.333 12.8-29.867 12.8s-21.333-4.267-29.867-12.8c-17.067-17.067-17.067-42.667 0-59.734l256-256c17.067-17.067 42.667-17.067 59.733 0z" />
<glyph unicode="&#xe91c;" glyph-name="chevron-left" d="M354.133 396.8l256-256c17.067-17.067 42.667-17.067 59.734 0s17.067 42.667 0 59.733l-226.133 226.133 226.133 226.133c8.533 8.533 12.8 21.333 12.8 29.867s-4.267 21.333-12.8 29.867c-17.067 17.067-42.667 17.067-59.734 0l-256-256c-17.067-17.067-17.067-42.667 0-59.733z" />
<glyph unicode="&#xe91d;" glyph-name="chevron-right" d="M669.867 456.534l-256 256c-17.067 17.067-42.667 17.067-59.734 0s-17.067-42.667 0-59.733l226.133-226.133-226.133-226.133c-8.533-8.533-12.8-21.333-12.8-29.867s4.267-21.333 12.8-29.867c17.067-17.067 42.667-17.067 59.734 0l256 256c17.067 17.067 17.067 42.667 0 59.733z" />
<glyph unicode="&#xe91e;" glyph-name="chevron-up" d="M482.133 584.534l-256-256c-17.067-17.067-17.067-42.667 0-59.734s42.667-17.067 59.733 0l226.133 226.133 226.133-226.133c8.533-8.533 21.333-12.8 29.867-12.8s21.333 4.267 29.867 12.8c17.067 17.067 17.067 42.667 0 59.734l-256 256c-17.067 17.067-42.667 17.067-59.733 0z" />
<glyph unicode="&#xe91f;" glyph-name="chrome" d="M136.533 708.267c0-4.267-4.266-4.267-4.266-8.533-55.467-76.8-89.6-170.667-89.6-273.067 0-238.933 179.2-435.2 409.6-465.067h4.266c17.067 0 34.133-4.267 55.467-4.267 260.267 0 469.333 209.067 469.333 469.333s-209.067 469.333-469.333 469.333c-153.6 0-290.133-72.533-375.467-187.733zM128 426.667c0 59.733 12.8 119.466 38.4 170.666l157.868-277.333c0 0 0-4.267 4.266-4.267 38.4-59.733 102.4-102.4 183.467-102.4 8.533 0 17.067 0 25.6 4.267l-98.133-166.4c-174.933 29.867-311.467 187.733-311.467 375.467zM512 554.667c72.533 0 128-55.467 128-128s-55.467-128-128-128c-72.533 0-128 55.467-128 128s55.467 128 128 128zM537.6 42.667l157.867 277.333v4.267c17.067 29.867 25.6 64 25.6 102.4 0 51.2-17.067 93.867-46.933 132.267h192c17.067-42.667 25.6-85.334 25.6-132.267 4.267-204.8-153.6-371.2-354.133-384zM512 810.667c132.267 0 247.467-68.266 315.733-166.4h-315.733c-8.533 0-12.8-4.267-21.333-4.267-76.8-8.533-145.067-55.467-174.934-128l-93.866 166.4c68.267 81.067 174.933 132.266 290.133 132.266z" />
<glyph unicode="&#xe920;" glyph-name="clock" d="M512 896c-260.267 0-469.333-209.067-469.333-469.333s209.067-469.333 469.333-469.333c260.267 0 469.333 209.067 469.333 469.333s-209.067 469.333-469.333 469.333zM512 42.667c-213.333 0-384 170.667-384 384s170.667 384 384 384c213.333 0 384-170.667 384-384s-170.667-384-384-384zM554.667 443.734v243.2c0 25.6-17.067 42.667-42.667 42.667s-42.667-17.067-42.667-42.667v-260.267c0-12.8 4.266-21.333 12.799-29.866l128-128c8.533-8.533 21.334-12.8 29.867-12.8s21.334 4.267 29.867 12.8c17.067 17.067 17.067 42.667 0 59.734l-115.2 115.2z" />
<glyph unicode="&#xe921;" glyph-name="close" d="M797.867 712.533c-17.067 17.067-42.667 17.067-59.733 0l-226.133-226.133-226.133 226.133c-17.067 17.067-42.667 17.067-59.733 0s-17.067-42.667 0-59.733l226.133-226.132-226.133-226.134c-17.067-17.067-17.067-42.667 0-59.733 8.533-8.533 21.333-12.8 29.867-12.8s21.333 4.267 29.867 12.8l226.133 226.134 226.133-226.134c8.533-8.533 21.333-12.8 29.867-12.8s21.333 4.267 29.867 12.8c17.067 17.067 17.067 42.667 0 59.733l-226.133 226.134 226.133 226.132c17.067 12.8 17.067 42.667 0 59.733z" />
<glyph unicode="&#xe922;" glyph-name="cloud-down" d="M506.453 2.091c4.267 0 4.267 0 4.267 0 12.8 0 21.332 4.267 29.866 12.8l170.667 170.667c17.067 17.067 17.067 42.667 0 59.733s-42.667 17.067-59.733 0l-102.4-102.4v285.867c0 25.6-17.067 42.667-42.667 42.667s-42.667-17.067-42.667-42.667v-277.333l-93.867 93.867c-17.067 17.067-42.666 17.067-59.733 0s-17.067-42.667 0-59.733l153.6-153.6c8.533-17.067 25.6-29.867 42.667-29.867zM109.516 744.477c-12.8-8.533-21.334-21.333-29.867-34.133-110.933-157.867-106.667-358.399 17.067-494.932 17.067-17.067 42.666-21.333 59.733-4.267s21.334 42.667 4.267 59.733c-81.067 89.6-115.2 243.199-12.8 388.266 4.267 8.533 8.533 12.8 17.066 17.067 89.6 81.067 200.534 106.666 302.935 76.8 102.4-29.867 174.933-110.933 204.8-213.333 4.267-17.067 21.333-34.133 42.667-34.133h85.333c8.533 0 17.067 0 21.333-4.267 68.267-29.867 110.933-85.332 119.467-149.332 4.267-59.733-21.333-119.467-72.533-157.867-21.333-12.8-25.604-38.4-8.538-59.733 8.533-12.8 21.338-17.067 34.138-17.067 8.533 0 17.067 4.267 25.6 8.533 76.8 51.2 115.2 145.067 106.667 234.667-8.533 98.132-72.533 174.932-170.667 217.599-17.067 8.533-34.133 12.8-55.467 12.8h-55.467c-38.4 115.2-132.267 204.8-251.733 238.933-132.268 51.2-273.068 17.067-384.001-85.334z" />
<glyph unicode="&#xe923;" glyph-name="cloud-off" d="M414.525 725.334c128-12.8 230.399-102.4 264.533-221.867 4.267-17.067 21.333-34.133 42.667-34.133h55.468c21.333 0 46.932-4.267 68.265-12.8 42.667-17.067 72.533-51.2 89.6-93.867s17.067-89.6 0-132.267c-8.533-21.333 0-46.933 21.333-55.467 4.267-4.267 12.8-4.267 17.067-4.267 17.067 0 34.133 8.533 38.4 25.6 25.6 64 25.6 132.267 0 196.267s-72.533 110.933-136.533 140.8c-29.867 12.8-64 21.333-98.132 21.333h-21.333c-51.2 140.8-179.2 243.2-328.534 256-21.334 0-42.667-17.066-46.934-38.4s12.801-42.667 34.134-46.934zM47.455 238.934c68.267-123.733 196.266-196.267 337.066-196.267h388.266c21.333 0 38.4 4.267 59.733 8.533l123.733-123.733c8.533-8.533 21.333-12.8 29.867-12.8s21.333 4.267 29.867 12.8c17.067 17.067 17.067 42.667 0 59.733l-938.666 938.667c-17.067 17.067-42.666 17.067-59.733 0s-17.067-42.667 0-59.733l132.267-132.267c-145.066-115.2-196.266-324.267-102.4-494.933zM755.721 128h-371.199c-106.667 0-209.067 59.733-260.267 153.6-72.533 136.533-34.133 302.933 89.6 388.267l541.866-541.867z" />
<glyph unicode="&#xe924;" glyph-name="cloud" d="M745.63 554.664c-64 187.733-264.533 294.4-456.535 243.2-98.133-25.6-183.467-89.6-234.667-174.933s-68.267-192-42.667-290.135c42.667-170.667 196.267-285.867 371.2-285.867h384.002c140.8 0 256 115.2 256 256 0 140.802-115.2 256.002-256 256.002h-21.333v-4.267zM937.63 298.663c0-93.867-76.8-170.667-170.667-170.667h-384.002c-136.533 0-256 93.867-290.133 221.867-21.333 76.802-8.533 157.868 29.867 226.135s106.667 119.467 183.467 136.533c25.6 8.533 51.2 8.533 76.8 8.533 51.202 0 106.668-12.8 149.335-42.667 68.267-38.4 119.467-106.667 136.533-183.467 4.267-17.067 21.333-34.133 42.667-34.133h55.467c93.867 8.533 170.667-68.267 170.667-162.135z" />
<glyph unicode="&#xe925;" glyph-name="comment" d="M897.673 264.534c29.867 55.467 42.667 119.467 42.667 183.467v25.6c-12.8 204.8-174.933 371.2-384 379.733h-21.333c-63.999 0-123.732-12.8-179.199-42.667-136.533-68.267-226.133-209.067-226.133-362.667 0-55.467 12.8-115.2 34.133-166.4l-76.8-226.133c-4.267-17.067 0.001-34.133 8.534-42.667s17.066-12.8 29.866-12.8c4.266 0 8.534 0 12.801 4.267l226.133 76.8c51.2-21.333 106.666-34.133 162.132-34.133 162.133-4.267 302.933 81.067 371.2 217.6zM535.006 128c-46.932 0-98.132 12.8-140.798 34.133-8.533 4.267-21.334 4.267-34.134 4.267l-162.132-55.467 55.466 162.133c4.267 12.8 4.267 21.333-4.267 34.133-21.333 42.667-34.133 93.867-34.133 140.8 0 123.733 68.267 230.4 179.2 285.867 42.667 21.333 93.866 34.133 140.798 34.133h17.067c162.133-8.533 290.133-136.533 302.933-298.667v-21.333c0-51.2-12.8-98.133-34.133-140.8-55.467-110.933-162.133-179.2-285.867-179.2z" />
<glyph unicode="&#xe926;" glyph-name="compass" d="M42.667 426.667c0-260.267 209.067-469.333 469.333-469.333s469.333 209.067 469.333 469.333c0 260.267-209.067 469.333-469.333 469.333s-469.333-209.067-469.333-469.333zM896 426.667c0-213.333-170.667-384-384-384s-384 170.667-384 384c0 213.333 170.667 384 384 384s384-170.667 384-384zM379.7 529.065l-89.6-273.067c-4.267-17.067 0.001-34.135 8.534-42.669s17.066-12.8 29.866-12.8c4.267 0 8.534 0 12.801 4.267l273.066 89.602c12.8 4.267 21.334 12.8 25.6 25.6l89.598 273.067c4.267 17.067 0 34.133-8.533 42.667-12.799 12.8-29.865 17.067-42.665 8.533l-273.066-89.6c-12.8 0-21.334-12.8-25.6-25.6zM622.901 541.865l-55.468-170.667-170.667-55.467 55.468 170.667 170.667 55.467z" />
<glyph unicode="&#xe927;" glyph-name="cpu" d="M384 597.334c-25.6 0-42.667-17.067-42.667-42.667v-256c0-25.6 17.067-42.667 42.667-42.667h256c25.6 0 42.667 17.067 42.667 42.667v256c0 25.6-17.067 42.667-42.667 42.667h-256zM597.333 341.334h-170.667v170.667h170.667v-170.667zM640 938.667c-25.6 0-42.667-17.067-42.667-42.667v-85.333h-170.667v85.333c0 25.6-17.067 42.667-42.667 42.667s-42.667-17.067-42.667-42.667v-85.333h-85.333c-72.533 0-128-55.467-128-128v-85.333h-85.333c-25.6 0-42.667-17.067-42.667-42.667s17.067-42.667 42.667-42.667h85.333v-128h-85.333c-25.6 0-42.667-17.067-42.667-42.667s17.067-42.667 42.667-42.667h85.333v-128c0-72.533 55.467-128 128-128h85.333v-85.333c0-25.6 17.067-42.667 42.667-42.667s42.667 17.067 42.667 42.667v85.333h170.667v-85.333c0-25.6 17.067-42.667 42.667-42.667s42.667 17.067 42.667 42.667v85.333h85.333c72.533 0 128 55.467 128 128v128h85.333c25.6 0 42.667 17.067 42.667 42.667s-17.067 42.667-42.667 42.667h-85.333v128h85.333c25.6 0 42.667 17.067 42.667 42.667s-17.067 42.667-42.667 42.667h-85.333v85.333c0 72.533-55.467 128-128 128h-85.333v85.333c0 25.6-17.067 42.667-42.667 42.667zM810.667 682.667v-512c0-25.6-17.067-42.667-42.667-42.667h-512c-25.6 0-42.667 17.067-42.667 42.667v512c0 25.6 17.067 42.667 42.667 42.667h512c25.6 0 42.667-17.067 42.667-42.667z" />
<glyph unicode="&#xe928;" glyph-name="dislike" d="M828.821 341.334c72.533 0 132.267 51.2 140.8 123.733v307.2c-8.533 72.533-68.267 123.733-140.8 123.733h-597.334c-64 0-119.467-46.933-128-106.667l-59.733-384c-4.267-34.133 4.267-68.267 21.333-93.867 21.333-25.6 51.2-46.933 85.333-51.2 8.533 0 12.8 0 21.333 0h200.533v-128c0-93.867 76.8-170.667 170.668-170.667 17.067 0 34.133 8.533 38.4 25.6l157.867 358.4h89.6v-4.267zM756.288 810.667h72.533c25.6 0 51.2-17.067 55.467-46.934v-290.132c-4.267-25.6-25.6-46.934-55.467-46.934h-72.533v384zM670.955 392.534l-153.6-345.6c-34.133 12.8-59.734 42.667-59.734 81.067v170.667c0 25.6-17.067 42.667-42.667 42.667h-243.2c0 0-4.267 0-8.533 0-12.8 0-21.333 8.533-29.867 17.067s-8.533 21.333-8.533 29.867l59.733 384c4.267 21.333 21.333 34.132 42.667 34.132h443.734v-413.866z" />
<glyph unicode="&#xe929;" glyph-name="doc-empty" d="M883.2 584.534l-298.667 298.667c-4.267 4.267-8.533 8.533-12.8 8.533-4.267 4.267-12.8 4.267-17.067 4.267h-298.667c-72.533 0-128-55.467-128-128v-682.667c0-72.533 55.467-128 128-128h512c72.533 0 128 55.467 128 128v469.333c0 4.267 0 12.8-4.267 17.066 0 4.267-4.267 8.534-8.533 12.8zM597.333 750.934l153.6-153.6h-153.6v153.6zM768 42.667h-512c-25.6 0-42.667 17.067-42.667 42.667v682.667c0 25.6 17.067 42.667 42.667 42.667h256v-256c0-25.6 17.067-42.667 42.667-42.667h256v-426.667c0-25.6-17.067-42.667-42.667-42.667z" />
<glyph unicode="&#xe92a;" glyph-name="doc-home" d="M810.667-43.733c72.533 0 128 55.467 128 128v469.333c0 12.8-4.267 25.6-17.067 34.133l-384 298.667c-17.067 12.8-38.4 12.8-51.2 0l-384-298.667c-12.8-8.533-17.067-21.333-17.067-34.133v-469.333c0-72.533 55.467-128 128-128h597.333zM597.333 41.6h-170.667v341.333h170.667v-341.333zM170.667 84.267v448l341.333 264.533 341.333-264.533v-448c0-25.6-17.067-42.667-42.667-42.667h-128v384c0 25.6-17.067 42.667-42.667 42.667h-256c-25.6 0-42.667-17.067-42.667-42.667v-384h-128c-25.6 0-42.667 17.067-42.667 42.667z" />
<glyph unicode="&#xe92b;" glyph-name="doc-minus" d="M128 768v-682.667c0-72.533 55.467-128 128-128h512c72.533 0 128 55.467 128 128v512c0 4.267 0 12.8-4.267 17.067s-4.267 8.533-8.533 12.8l-256 256c-4.267 4.267-8.533 8.534-12.8 8.534-4.267 4.267-12.8 4.267-17.067 4.267h-341.333c-72.533 0-128-55.467-128-128zM768 42.667h-512c-25.6 0-42.667 17.067-42.667 42.667v682.667c0 25.6 17.067 42.667 42.667 42.667h298.667v-213.333c0-25.6 17.067-42.667 42.667-42.667h213.333v-469.333c0-25.6-17.067-42.667-42.667-42.667zM640 750.934l110.933-110.933h-110.933v110.933zM640 386.091h-256c-25.6 0-42.667-17.067-42.667-42.667s17.067-42.667 42.667-42.667h256c25.6 0 42.667 17.067 42.667 42.667s-17.067 42.667-42.667 42.667z" />
<glyph unicode="&#xe92c;" glyph-name="doc-plus" d="M256-42.666h512c72.533 0 128 55.467 128 128v512c0 4.267 0 12.8-4.267 17.067s-4.267 8.533-8.533 12.8l-256 256c-4.267 4.267-8.533 8.534-12.8 8.534-4.267 4.267-12.8 4.267-17.067 4.267h-341.333c-72.533 0-128-55.467-128-128v-682.667c0-72.533 55.467-128 128-128zM640 750.934l110.933-110.933h-110.933v110.933zM213.333 768c0 25.6 17.067 42.667 42.667 42.667h298.667v-213.333c0-25.6 17.067-42.667 42.667-42.667h213.333v-469.333c0-25.6-17.067-42.667-42.667-42.667h-512c-25.6 0-42.667 17.067-42.667 42.667v682.667zM384 256h85.333v-85.333c0-25.6 17.067-42.667 42.667-42.667s42.667 17.067 42.667 42.667v85.333h85.333c25.6 0 42.667 17.067 42.667 42.667s-17.067 42.667-42.667 42.667h-85.333v85.333c0 25.6-17.067 42.667-42.667 42.667s-42.667-17.067-42.667-42.667v-85.333h-85.333c-25.6 0-42.667-17.067-42.667-42.667s17.067-42.667 42.667-42.667z" />
<glyph unicode="&#xe92d;" glyph-name="doc" d="M256-42.666h512c72.533 0 128 55.467 128 128v512c0 4.267 0 12.8-4.267 17.066s-4.267 8.534-8.533 12.8l-256 256c-4.267 4.267-8.533 8.533-12.8 8.533-4.267 4.267-12.8 4.267-17.067 4.267h-341.333c-72.533 0-128-55.467-128-128v-682.667c0-72.533 55.467-128 128-128zM640 750.934l110.933-110.934h-110.933v110.934zM213.333 768c0 25.6 17.067 42.667 42.667 42.667h298.667v-213.333c0-25.6 17.067-42.667 42.667-42.667h213.333v-469.333c0-25.6-17.067-42.667-42.667-42.667h-512c-25.6 0-42.667 17.067-42.667 42.667v682.667zM341.333 341.334h341.333c25.6 0 42.667 17.067 42.667 42.667s-17.067 42.667-42.667 42.667h-341.333c-25.6 0-42.667-17.067-42.667-42.667s17.067-42.667 42.667-42.667zM341.333 170.667h341.333c25.6 0 42.667 17.067 42.667 42.667s-17.067 42.667-42.667 42.667h-341.333c-25.6 0-42.667-17.067-42.667-42.667s17.067-42.667 42.667-42.667zM341.333 512h85.333c25.6 0 42.667 17.067 42.667 42.667s-17.067 42.667-42.667 42.667h-85.333c-25.6 0-42.667-17.067-42.667-42.667s17.067-42.667 42.667-42.667z" />
<glyph unicode="&#xe92e;" glyph-name="download" d="M896 256c-25.6 0-42.667-17.067-42.667-42.667v-128c0-25.6-17.067-42.667-42.667-42.667h-597.333c-25.6 0-42.667 17.067-42.667 42.667v128c0 25.6-17.067 42.667-42.667 42.667s-42.667-17.067-42.667-42.667v-128c0-72.533 55.467-128 128-128h597.333c72.533 0 128 55.467 128 128v128c0 25.6-17.067 42.667-42.667 42.667zM482.133 204.8c8.533-8.533 21.333-12.8 29.867-12.8s21.333 4.267 29.867 12.8l170.667 170.667c17.067 17.067 17.067 42.667 0 59.733s-42.667 17.067-59.733 0l-98.133-98.133v516.267c0 25.6-17.067 42.667-42.667 42.667s-42.667-17.067-42.667-42.667v-516.267l-98.133 98.133c-17.067 17.067-42.667 17.067-59.733 0s-17.067-42.667 0-59.733l170.667-170.667z" />
<glyph unicode="&#xe92f;" glyph-name="duplicate" d="M853.333 597.334h-384c-72.533 0-128-55.467-128-128v-384c0-72.533 55.467-128 128-128h384c72.533 0 128 55.467 128 128v384c0 72.533-55.467 128-128 128zM896 85.334c0-25.6-17.067-42.667-42.667-42.667h-384c-25.6 0-42.667 17.067-42.667 42.667v384c0 25.6 17.067 42.667 42.667 42.667h384c25.6 0 42.667-17.067 42.667-42.667v-384zM170.667 256h42.667c25.6 0 42.667 17.067 42.667 42.667s-17.067 42.667-42.667 42.667h-42.667c-25.6 0-42.667 17.067-42.667 42.667v384c0 25.6 17.067 42.667 42.667 42.667h384c25.6 0 42.667-17.067 42.667-42.667v-42.667c0-25.6 17.067-42.667 42.667-42.667s42.667 17.067 42.667 42.667v42.667c0 72.533-55.467 128-128 128h-384c-72.533 0-128-55.467-128-128v-384c0-72.533 55.467-128 128-128z" />
<glyph unicode="&#xe930;" glyph-name="export" d="M426.667-42.666c25.6 0 42.667 17.067 42.667 42.667s-17.067 42.667-42.667 42.667h-213.333c-25.6 0-42.667 17.067-42.667 42.667v682.667c0 25.6 17.067 42.667 42.667 42.667h213.333c25.6 0 42.667 17.067 42.667 42.667s-17.067 42.667-42.667 42.667h-213.333c-72.533 0-128-55.467-128-128v-682.667c0-72.533 55.467-128 128-128h213.333zM695.467 226.134c8.533-8.533 21.333-12.8 29.867-12.8s21.333 4.267 29.867 12.8l170.667 170.667c4.267 4.267 8.533 8.533 8.533 12.8 4.267 8.533 4.267 21.333 0 34.133-4.267 4.267-4.267 8.533-8.533 12.8l-170.667 170.667c-17.067 17.067-42.667 17.067-59.733 0s-17.067-42.667 0-59.733l98.133-98.133h-409.6c-25.6 0-42.667-17.067-42.667-42.667s17.067-42.667 42.667-42.667h409.6l-98.133-98.133c-17.067-17.067-17.067-42.667 0-59.733z" />
<glyph unicode="&#xe931;" glyph-name="eye-off" d="M431.267 716.8c25.494 4.267 50.987 8.533 80.73 8.533 229.444 0 378.158-230.4 420.645-298.667-21.244-38.4-46.737-76.8-76.48-106.667-16.994-17.067-12.745-46.933 4.25-59.733 8.499-8.533 16.994-8.533 25.493-8.533 12.749 0 25.493 4.267 33.993 17.067 38.242 42.667 67.981 93.867 97.724 145.067 8.499 12.8 8.499 25.6 0 38.4-8.495 12.8-186.953 366.933-505.624 366.933-33.992 0-67.983-4.266-97.726-12.8-21.245-4.267-38.241-29.867-29.743-51.2 4.249-29.867 25.494-42.667 46.739-38.4zM1009.126-12.8l-934.769 938.667c-16.996 17.067-42.49 17.067-59.485 0s-16.996-42.667 0-59.733l182.705-183.467c-76.481-68.267-140.216-145.067-191.203-234.667-8.498-12.8-8.498-25.6 0-38.4s186.954-366.933 505.626-366.933c89.229 0 174.208 25.6 246.438 76.8l191.206-192c8.495-8.533 21.244-12.8 29.743-12.8 8.495 0 21.244 4.267 29.739 12.8 16.998 17.067 16.998 42.667 0 59.733zM427.021 452.267l106.223-106.667c-29.743-8.533-59.486-4.267-84.979 17.067-16.994 17.067-25.493 38.4-25.493 59.733 0 8.533 4.249 17.067 4.249 29.867zM512 128c-229.444 0-378.157 230.4-420.647 298.667 42.49 76.8 97.726 140.8 165.71 196.267l106.224-106.667c-16.996-29.867-25.494-64-25.494-98.133 0-46.933 21.245-89.6 55.236-119.467s72.234-46.933 114.722-46.933c29.743 0 63.735 8.533 89.229 25.6l97.728-98.133c-55.236-34.133-118.972-51.2-182.707-51.2z" />
<glyph unicode="&#xe932;" glyph-name="eye" d="M510.933 810.667c-320 0-499.2-349.867-507.733-366.933-4.267-12.8-4.267-25.6 0-38.4 8.533-12.8 187.733-366.933 507.733-366.933s499.2 349.867 507.733 366.933c4.267 12.8 4.267 25.6 0 38.4-8.533 17.067-187.733 366.933-507.733 366.933zM510.933 128c-230.4 0-379.733 230.4-422.4 298.667 38.4 68.267 192 298.667 422.4 298.667s379.733-230.4 422.4-298.667c-42.667-68.267-192-298.667-422.4-298.667zM511.147 597.334c-93.867 0-170.667-76.8-170.667-170.667s76.8-170.667 170.667-170.667c93.867 0 170.667 76.8 170.667 170.667s-76.8 170.667-170.667 170.667zM511.147 341.334c-46.933 0-85.333 38.4-85.333 85.333s38.4 85.333 85.333 85.333c46.933 0 85.333-38.4 85.333-85.333s-38.4-85.333-85.333-85.333z" />
<glyph unicode="&#xe933;" glyph-name="facebook" d="M384-46.933h170.667c25.6 0 42.667 17.067 42.667 42.667v298.667h85.333c21.333 0 38.4 12.8 42.667 34.133l42.667 170.667c4.267 12.8 0 25.6-8.533 38.4s-21.333 17.067-34.133 17.067h-128v85.333h128c25.6 0 42.667 17.067 42.667 42.667v170.667c0 25.6-17.067 42.667-42.667 42.667h-128c-140.8 0-256-115.2-256-256v-85.333h-85.333c-25.6 0-42.667-17.067-42.667-42.667v-170.667c0-25.6 17.067-42.667 42.667-42.667h85.333v-298.667c0-29.867 17.067-46.933 42.667-46.933zM298.667 379.734v85.333h85.333c25.6 0 42.667 17.067 42.667 42.667v128c0 93.867 76.8 170.667 170.667 170.667h85.333v-85.333h-85.333c-46.933 0-85.333-38.4-85.333-85.333v-128c0-25.6 17.067-42.667 42.667-42.667h115.2l-21.333-85.333h-93.867c-25.6 0-42.667-17.067-42.667-42.667v-298.667h-85.333v298.667c0 25.6-17.067 42.667-42.667 42.667h-85.333z" />
<glyph unicode="&#xe934;" glyph-name="filter" d="M977.451 827.733c-8.533 17.067-21.333 25.6-38.4 25.6h-853.332c-17.067 0-29.867-8.534-38.4-25.6s-4.267-34.133 4.267-46.933l332.8-392.533v-264.533c0-17.067 8.533-29.867 25.6-38.4l170.666-85.333c4.267-4.267 12.8-4.267 17.067-4.267 8.533 0 17.067 4.267 21.333 4.267 12.8 8.533 21.333 21.333 21.333 38.4v349.867l332.8 392.533c8.533 17.067 12.8 34.133 4.267 46.933zM563.584 435.2c-8.533-8.533-8.533-17.067-8.533-25.6v-294.4l-85.333 42.667v251.733c0 8.533-4.266 21.333-8.532 25.6l-281.6 332.8h669.866l-285.867-332.8z" />
<glyph unicode="&#xe935;" glyph-name="flag-1" d="M853.333-0c72.533 0 128 55.467 128 128v469.333c0 72.533-55.467 128-128 128h-362.667l-72.533 110.934c-8.533 12.8-21.333 17.066-34.133 17.066h-213.333c-72.533 0-128-55.467-128-128v-597.333c0-72.533 55.467-128 128-128h682.667zM128 128v597.333c0 25.6 17.067 42.667 42.667 42.667h192l72.533-110.934c8.533-12.8 21.333-17.066 34.133-17.066h384c25.6 0 42.667-17.067 42.667-42.667v-469.333c0-25.6-17.067-42.667-42.667-42.667h-682.667c-25.6 0-42.667 17.067-42.667 42.667z" />
<glyph unicode="&#xe936;" glyph-name="flag" d="M170.667-42.666c25.6 0 42.667 17.067 42.667 42.667v277.333c17.067 8.533 59.733 21.333 128 21.333 55.467 0 102.4-21.333 153.6-38.4 55.467-21.333 115.2-46.933 187.733-46.933 136.533 0 192 46.933 200.533 55.467s12.8 17.067 12.8 29.867v512c0 17.067-8.533 29.866-25.6 38.4s-34.133 4.267-46.933-8.533c0 0-38.4-29.867-140.8-29.867-55.467 0-102.4 21.333-153.6 38.4-55.467 21.334-115.2 46.934-187.733 46.934-136.533 0-192-46.933-200.533-55.467s-12.8-17.067-12.8-29.867v-810.667c0-25.6 17.067-42.667 42.667-42.667zM213.333 789.334c17.067 8.533 59.733 21.333 128 21.333 55.467 0 102.4-21.333 153.6-38.4 55.467-21.333 115.2-46.934 187.733-46.934 55.467 0 98.133 8.533 128 17.066v-422.4c-17.067-8.533-59.733-21.333-128-21.333-55.467 0-102.4 21.333-153.6 38.4-55.467 21.333-115.2 46.933-187.733 46.933-55.467 0-98.133-8.533-128-17.067v422.4z" />
<glyph unicode="&#xe937;" glyph-name="github" d="M342.151 155.153c-89.6-17.067-119.467 17.067-153.6 64-21.333 29.867-46.932 64-93.866 72.533-21.333 4.267-46.934-8.533-51.2-29.867s8.533-46.933 29.867-51.2c12.8-4.267 29.866-21.333 46.933-42.667 38.4-46.933 93.867-115.2 221.867-98.133v-72.533c0-25.6 17.067-42.667 42.667-42.667s42.667 17.067 42.667 42.667v166.4c0 29.867 8.534 55.467 29.867 76.8 12.801 12.8 17.068 29.867 8.532 42.667-4.267 17.067-17.066 25.6-34.132 29.867-123.733 17.067-238.934 55.467-238.934 255.999 0 51.2 17.067 93.867 51.2 132.267 12.8 12.8 12.799 29.867 8.532 42.667-12.8 34.133-12.8 68.267-4.267 102.4 21.333-4.267 59.733-17.066 110.933-55.466 8.533-8.533 21.334-8.534 34.134-4.267 89.601 25.6 187.735 25.6 277.335 0 12.8-4.267 25.6 0 34.133 4.267 55.467 38.4 93.867 51.2 110.933 55.466 8.533-34.133 8.533-68.267-4.267-102.4-4.267-17.067-4.267-34.133 8.533-42.667 34.133-34.133 51.2-81.067 51.2-132.267 0-200.532-115.204-243.199-238.938-255.999-17.067 0-29.862-12.8-34.129-29.867s0-34.133 8.533-42.667c21.333-21.333 29.867-51.2 29.867-81.067v-162.133c0-25.6 17.067-42.667 42.667-42.667s42.667 17.067 42.667 42.667v162.133c4.267 29.867 0 55.467-12.8 81.067 98.133 21.333 247.467 89.6 247.467 332.799 0 64-21.333 119.467-59.733 170.667 12.8 55.467 8.533 115.2-12.8 166.4-4.267 12.8-12.8 21.334-25.6 25.6-17.067 4.267-72.533 12.8-187.733-59.733-93.867 21.333-192 21.333-281.601 0-110.933 72.533-170.667 64-187.733 59.733-12.8-4.267-21.333-12.8-25.6-25.6-21.333-55.467-25.601-110.933-12.801-166.4-38.4-46.933-59.733-106.667-59.733-170.667 0-230.399 128.001-302.932 247.468-328.532-4.267-29.867-8.534-55.467-8.534-89.6z" />
<glyph unicode="&#xe938;" glyph-name="groups" d="M554.667 320h-341.333c-119.467 0-213.333-93.867-213.333-213.333v-85.333c0-25.6 17.067-42.667 42.667-42.667s42.667 17.067 42.667 42.667v85.333c0 72.533 55.467 128 128 128h341.333c72.533 0 128-55.467 128-128v-85.333c0-25.6 17.067-42.667 42.667-42.667s42.667 17.067 42.667 42.667v85.333c0 119.467-93.867 213.333-213.333 213.333zM384 853.334c-119.467 0-213.333-93.867-213.333-213.333s93.867-213.333 213.333-213.333c119.467 0 213.333 93.867 213.333 213.333s-93.867 213.333-213.333 213.333zM384 512c-72.533 0-128 55.467-128 128s55.467 128 128 128c72.533 0 128-55.467 128-128s-55.467-128-128-128zM1023.964 21.327v106.667c0 98.133-64 183.466-162.133 204.799-21.333 4.267-46.934-8.533-51.2-29.866s8.534-46.934 29.867-51.201c55.467-12.8 93.867-64 93.867-123.733v-106.667c0-25.6 17.067-42.667 42.667-42.667s46.932 17.067 46.932 42.667zM823.577 746.66c-29.867 46.933-76.799 85.333-132.265 98.133-21.333 4.267-46.934-8.533-51.201-29.866s8.534-46.934 29.867-51.201c34.133-8.533 59.733-29.866 76.8-59.733s21.332-64 12.799-98.133c-12.8-46.933-46.934-81.067-93.867-93.867-21.333-4.267-38.398-29.867-29.865-51.2 4.267-21.333 21.333-34.133 42.667-34.133 4.267 0 8.531 0 8.531 0 76.8 21.333 136.535 76.8 153.602 153.6 21.333 59.733 12.799 119.466-17.068 166.4z" />
<glyph unicode="&#xe939;" glyph-name="hashtags" d="M170.667 349.214c-25.6 0-42.667-17.067-42.667-42.667s17.067-42.667 42.667-42.667h153.6l-25.6-217.6c-4.267-21.333 12.8-42.667 38.4-46.933h4.267c21.333 0 38.4 17.067 42.667 38.4l25.6 226.133h170.666l-25.6-217.6c-4.267-21.333 12.8-42.667 38.4-46.933h4.267c21.333 0 38.4 17.067 42.667 38.4l25.6 226.133h187.733c25.6 0 42.667 17.067 42.667 42.667s-17.067 42.667-42.667 42.667h-179.2l17.067 170.666h157.867c25.6 0 42.667 17.067 42.667 42.667s-17.067 42.667-42.667 42.667h-149.333l21.333 200.533c4.267 21.333-12.8 42.667-38.4 46.934-21.333 4.267-42.667-12.8-46.933-38.4l-21.333-209.066h-170.667l21.333 200.533c4.267 21.333-12.8 42.667-38.4 46.934-21.333 4.267-42.667-12.8-46.934-38.4l-21.333-209.066h-187.733c-25.6 0-42.667-17.067-42.667-42.667s17.067-42.667 42.667-42.667h179.2l-17.068-170.666h-162.133zM439.466 519.88h170.667l-17.067-170.666h-170.667l17.067 170.666z" />
<glyph unicode="&#xe93a;" glyph-name="headphone" d="M810.667 6.985c72.533 0 128 55.467 128 128v290.133c0 123.734-55.467 243.2-149.333 324.267s-217.6 119.467-341.333 98.133c-209.067-29.867-362.667-217.6-362.667-435.2v-277.333c0-72.533 55.467-128 128-128h42.667c72.533 0 128 55.467 128 128v128c0 72.533-55.467 128-128 128h-85.333v21.333c0 174.933 123.733 324.267 290.133 349.867 102.4 12.8 196.267-12.8 273.067-81.066 76.8-64 119.467-157.867 119.467-256v-34.133h-85.333c-72.533 0-128-55.467-128-128v-128c0-72.533 55.467-128 128-128h42.667zM256 305.652c25.6 0 42.667-17.067 42.667-42.667v-128c0-25.6-17.067-42.667-42.667-42.667h-42.667c-25.6 0-42.667 17.067-42.667 42.667v170.667h85.333zM725.333 134.985v128c0 25.6 17.067 42.667 42.667 42.667h85.333v-170.667c0-25.6-17.067-42.667-42.667-42.667h-42.667c-25.6 0-42.667 17.067-42.667 42.667z" />
<glyph unicode="&#xe93b;" glyph-name="heart" d="M512-0c-12.8 0-21.333 4.267-29.867 12.8l-362.667 371.2c-102.4 106.667-102.4 281.6 0 388.267 51.2 51.2 119.467 81.067 192 81.067s140.8-29.867 187.733-81.067l12.8-12.8 12.8 12.8c51.2 51.2 119.467 81.067 187.733 81.067 72.533 0 140.8-29.867 187.733-81.067v0c102.4-106.667 102.4-281.6 0-388.267l-362.667-371.2c-4.267-8.533-12.8-12.8-25.6-12.8zM311.467 768c-46.933 0-93.867-21.333-128-55.467-72.533-72.533-72.533-192 0-268.8l328.533-341.333 328.533 341.333c72.533 72.533 72.533 196.267 0 268.8-34.133 34.133-81.067 55.467-128 55.467s-93.867-21.333-128-55.467l-42.667-42.667c-17.067-17.067-46.933-17.067-59.733 0l-42.667 42.667c-34.133 34.133-81.067 55.467-128 55.467z" />
<glyph unicode="&#xe93c;" glyph-name="help-circle" d="M435.313 665.601c-42.667-21.333-72.533-55.467-85.333-98.134-8.533-21.333 4.266-46.933 25.599-55.467s46.933 4.267 55.466 25.6c8.533 21.333 21.333 38.4 42.667 46.933s42.667 12.8 64 4.267c34.133-12.8 55.469-42.667 55.469-81.067 0-42.667-72.535-76.8-98.135-89.6-21.333-8.533-34.132-29.867-25.599-55.467 4.267-17.067 21.334-29.867 38.401-29.867 4.267 0 8.533 0 12.8 4.266 17.067 4.267 157.867 55.467 157.867 166.4 0 72.533-46.934 136.534-115.2 162.134-38.4 21.333-85.333 21.333-128 0zM42.667 426.667c0-260.267 209.067-469.333 469.333-469.333s469.333 209.067 469.333 469.333c0 260.267-209.067 469.333-469.333 469.333s-469.333-209.067-469.333-469.333zM896 426.667c0-213.333-170.667-384-384-384s-384 170.667-384 384c0 213.333 170.667 384 384 384s384-170.667 384-384zM541.867 243.179c0 0-4.267 4.267-8.534 4.267 0 0-4.267 4.266-8.534 4.266s-4.267 0-8.534 4.267c-12.8 4.267-29.865 0-38.399-12.8-4.267-4.267-8.534-8.533-8.534-12.8s-4.266-8.533-4.266-17.066c0-12.8 4.266-21.333 12.799-29.867s17.067-12.8 29.867-12.8c4.267 0 4.265 0 8.532 0s4.267 0 8.534 4.267c4.267 0 4.267 4.266 8.534 4.266s4.267 4.267 8.534 4.267c8.533 8.533 12.8 21.333 12.8 29.867 0 4.267 0.001 12.8-4.266 17.066 0 4.267-4.267 8.533-8.534 12.8z" />
<glyph unicode="&#xe93d;" glyph-name="import" d="M938.667 85.334v682.667c0 72.533-55.467 128-128 128h-213.333c-25.6 0-42.667-17.067-42.667-42.667s17.067-42.667 42.667-42.667h213.333c25.6 0 42.667-17.067 42.667-42.667v-682.667c0-25.6-17.067-42.667-42.667-42.667h-213.333c-25.6 0-42.667-17.067-42.667-42.667s17.067-42.667 42.667-42.667h213.333c72.533 0 128 55.467 128 128zM439.467 217.6c8.533-8.533 21.333-12.8 29.867-12.8s21.333 4.267 29.867 12.8l170.667 170.667c8.533 8.533 12.8 21.333 12.8 34.133 0 0 0 0 0 4.267 0 17.067-12.8 34.133-29.867 38.4l-153.6 153.6c-17.067 17.067-42.667 17.067-59.733 0s-17.067-42.667 0-59.733l89.6-89.6h-401.067c-25.6 0-42.667-17.067-42.667-42.667s17.067-42.667 42.667-42.667h413.867l-102.4-102.4c-17.067-17.067-17.067-46.933 0-64z" />
<glyph unicode="&#xe93e;" glyph-name="inbox" d="M311.467 810.667c-51.2 0-98.133-29.867-115.2-76.8l-149.333-332.8c-4.267-4.267-4.267-12.8-4.267-17.066v-213.333c0-72.533 55.467-128 128-128h682.667c72.533 0 128 55.467 128 128v213.333c0 4.267 0 12.8-4.267 17.066l-149.333 332.8c-21.333 46.933-68.267 76.8-115.2 76.8h-401.067zM853.333 128h-682.667c-25.6 0-42.667 17.067-42.667 42.667v170.667h192l72.533-110.933c8.533-12.8 21.333-17.067 34.133-17.067h170.667c12.8 0 25.6 8.533 34.133 17.067l72.533 110.933h192v-170.667c0-25.6-17.067-42.667-42.667-42.667zM712.533 725.334c17.067 0 34.133-8.534 38.4-25.6l119.467-273.066h-187.733c-12.8 0-25.6-8.533-34.133-17.066l-72.533-110.934h-123.733l-72.533 110.934c-8.533 12.8-21.333 17.066-34.133 17.066h-192l119.467 273.066c8.533 17.067 21.333 25.6 38.4 25.6h401.067z" />
<glyph unicode="&#xe93f;" glyph-name="info-circle" d="M512-42.666c260.267 0 469.333 209.067 469.333 469.333s-209.067 469.333-469.333 469.333c-260.267 0-469.333-209.067-469.333-469.333s209.067-469.333 469.333-469.333zM512 810.667c213.333 0 384-170.667 384-384s-170.667-384-384-384c-213.333 0-384 170.667-384 384s170.667 384 384 384zM512 213.334c25.6 0 42.667 17.067 42.667 42.667v170.667c0 25.6-17.067 42.667-42.667 42.667s-42.667-17.067-42.667-42.667v-170.667c0-25.6 17.067-42.667 42.667-42.667zM512 554.646c12.8 0 21.333 4.267 29.867 12.8s12.8 17.067 12.8 29.867c0 12.8-4.267 21.333-12.8 29.867-4.267 4.267-8.534 8.533-12.8 8.533s-4.266 0-8.533 4.267c-12.8 4.267-29.867 0-38.4-12.8-8.533-8.533-12.8-21.333-12.8-29.867 0-12.8 4.267-21.333 12.8-29.867s17.067-12.8 29.867-12.8z" />
<glyph unicode="&#xe940;" glyph-name="instagram" d="M725.333 896h-426.667c-140.8 0-256-115.2-256-256v-426.667c0-140.8 115.2-256 256-256h426.667c140.8 0 256 115.2 256 256v426.667c0 140.8-115.2 256-256 256zM896 213.334c0-93.867-76.8-170.667-170.667-170.667h-426.667c-93.867 0-170.667 76.8-170.667 170.667v426.667c0 93.867 76.8 170.667 170.667 170.667h426.667c93.867 0 170.667-76.8 170.667-170.667v-426.667zM546.27 640c-21.333 4.267-42.667 4.267-64 0-115.2-17.067-196.267-128-179.2-243.2 8.533-55.467 38.4-106.667 85.333-140.8 38.4-25.6 81.067-42.667 128-42.667 8.533 0 21.333 0 29.867 4.267 55.467 8.533 106.667 38.4 140.8 85.333s46.933 102.4 38.4 157.866c-12.8 93.867-85.333 166.4-179.2 179.2zM618.803 354.134c-21.333-25.6-51.2-46.933-85.333-51.2s-68.266 4.266-93.866 25.6c-25.6 21.333-46.933 51.2-51.2 85.333-8.533 68.267 38.4 136.534 106.667 145.067 4.267 0 12.8 0 17.066 0s12.8 0 17.067 0c55.467-8.533 98.133-51.2 106.667-106.667 8.533-38.4 0-72.534-17.067-98.134zM776.533 691.2c-17.067 17.067-42.667 17.067-59.733 0-4.267-4.267-8.533-8.533-8.533-12.8-4.267-4.267-4.267-8.533-4.267-17.066 0-12.8 4.267-21.333 12.8-29.867 4.267-4.267 8.533-8.533 12.8-8.533s8.533-4.267 17.066-4.267c8.533 0 12.8 0 17.066 4.267s8.534 4.266 12.8 8.533c8.533 8.533 12.8 17.067 12.8 29.867 0 4.267 0 12.8-4.267 17.066s-4.266 8.533-8.533 12.8z" />
<glyph unicode="&#xe941;" glyph-name="lifsaver" d="M844.8 93.867c85.333 85.333 136.533 204.8 136.533 332.8s-51.2 247.467-136.533 332.8c-85.333 85.333-200.533 136.533-332.8 136.533s-247.466-51.2-332.8-136.533c-85.333-85.333-136.534-200.533-136.534-332.8s51.2-247.467 136.534-332.8c85.333-85.333 200.533-136.533 332.8-136.533s247.467 51.2 332.8 136.533zM810.667 187.734l-123.733 123.733c21.333 34.133 34.133 72.533 34.133 119.467s-12.8 85.333-34.133 119.466l123.733 123.734c51.2-64 85.333-149.333 85.333-238.933s-29.867-183.467-85.333-247.467zM384 426.667c0 72.533 55.467 128 128 128s128-55.467 128-128c0-72.533-55.467-128-128-128s-128 55.467-128 128zM750.933 725.334l-123.733-123.733c-34.133 21.333-72.533 34.132-119.467 34.132s-85.333-12.799-119.466-34.132l-123.733 123.733c64 51.2 149.332 85.333 238.933 85.333s183.467-29.867 247.467-85.333zM213.333 665.601l123.733-123.734c-21.333-34.133-34.132-72.533-34.132-119.467s12.799-85.333 34.132-119.467l-123.733-123.733c-51.2 64-85.333 149.333-85.333 238.933s29.867 183.467 85.333 247.467zM273.066 128l123.733 123.733c34.133-21.333 72.534-34.133 119.467-34.133s85.333 12.8 119.467 34.133l123.733-123.733c-64-51.2-149.333-85.333-238.933-85.333s-183.467 29.867-247.467 85.333z" />
<glyph unicode="&#xe942;" glyph-name="lighting" d="M896.384 554.667h-337.067l38.4 294.4c4.267 17.067-8.533 38.4-25.6 42.667-17.067 8.533-38.4 4.267-51.2-12.799l-426.666-512c-8.533-12.8-12.8-29.867-4.267-46.933s21.333-25.6 38.4-25.6h337.067l-38.4-294.4c-4.267-17.067 8.533-38.4 25.6-42.667 4.267-4.267 12.8-4.267 17.067-4.267 12.8 0 25.6 4.267 34.133 17.067l426.666 512c8.533 12.8 12.8 29.867 4.267 46.933s-21.333 25.6-38.4 25.6zM529.451 140.8l25.6 196.267c0 12.8-4.267 25.6-8.533 34.133-8.533 8.533-21.333 12.8-34.133 12.8h-294.399l277.333 328.534-25.6-196.267c0-12.8 4.266-25.601 8.533-34.134 8.533-8.533 21.334-12.8 34.133-12.8h294.4l-277.333-328.533z" />
<glyph unicode="&#xe943;" glyph-name="like" d="M857.6 597.334c-8.533 0-12.8 0-21.333 0h-196.267v128c0 93.867-76.8 170.667-170.667 170.667-17.067 0-34.133-8.534-38.4-25.6l-157.867-358.4h-102.4c-72.533 0-128-55.467-128-128v-298.667c0-72.533 55.467-128 128-128h610.133c64 0 115.2 46.933 128 106.667l59.733 384c4.267 34.133-4.267 68.267-25.6 93.867-21.333 29.867-51.2 46.933-85.333 55.467zM256 42.667h-85.333c-25.6 0-42.667 17.067-42.667 42.667v298.667c0 25.6 17.067 42.667 42.667 42.667h85.333v-384zM823.467 76.8c-4.267-21.333-21.333-34.133-42.667-34.133h-439.467v418.133l153.6 345.6c34.133-12.8 59.733-42.666 59.733-81.066v-170.667c0-25.6 17.067-42.667 42.667-42.667h243.2c0 0 4.267 0 8.533 0 12.8 0 21.333-8.533 29.867-17.066s8.533-21.334 8.533-29.867l-64-388.267z" />
<glyph unicode="&#xe944;" glyph-name="link-2" d="M381.304 251.734h-119.466c-85.333 0-157.867 55.467-174.934 136.533-8.533 51.2 0 102.4 34.133 145.067 34.133 38.4 81.067 64 132.267 64h128c25.6 0 42.667 17.067 42.667 42.666s-17.067 42.667-42.667 42.667h-128c-76.8 0-149.333-34.134-196.267-93.867s-68.266-136.533-51.199-213.333c25.6-119.466 132.266-204.8 260.266-204.8h119.468c25.6 0 42.665 17.067 42.665 42.667s-21.332 38.4-46.932 38.4zM637.44 678.4c-25.6 0-42.667-17.067-42.667-42.667s17.067-42.667 42.667-42.667h119.466c85.333 0 157.867-55.467 174.933-136.533 8.533-51.2 0.001-102.4-34.132-145.067-34.133-38.4-81.067-64-132.267-64h-128c-25.6 0-42.667-17.067-42.667-42.667s17.067-42.667 42.667-42.667h128c76.8 0 149.334 34.133 196.267 93.867s68.266 136.533 51.199 213.333c-25.6 119.467-132.266 204.799-260.266 204.799h-115.2v4.267zM296.107 422.4c0-25.6 17.067-42.667 42.667-42.667h341.333c25.6 0 42.667 17.067 42.667 42.667s-17.067 42.667-42.667 42.667h-341.333c-25.6 0-42.667-17.067-42.667-42.667z" />
<glyph unicode="&#xe945;" glyph-name="link" d="M745.576 306.134c8.533 8.533 17.068 17.067 29.868 25.6l127.998 128c98.133 102.4 93.867 264.533-4.267 362.666-98.132 98.134-255.999 98.134-354.132 0l-72.532-72.533c-17.067-17.067-17.067-42.667 0-59.733s42.666-17.067 59.733 0l72.534 72.533c68.267 64 170.665 64 238.931 0s68.267-174.934 4.267-238.934l-127.999-128c-4.267-4.267-12.8-12.8-17.067-17.067-38.4-25.6-81.067-38.4-128-34.133-46.933 8.533-85.333 29.867-110.933 68.267-12.8 17.067-42.667 21.333-59.733 8.533s-21.334-42.667-8.534-59.733c42.667-55.467 102.401-89.6 166.401-98.133 12.8 0 25.6-4.267 38.4-4.267 46.933-4.267 98.133 12.8 145.066 46.933zM301.902 459.713c4.267 4.267 12.8 12.8 17.066 17.067 38.4 25.6 81.067 38.4 128 34.133 46.933-8.533 85.333-29.867 110.933-68.267 12.8-17.067 42.667-21.333 59.733-8.533s21.333 42.666 8.533 59.733c-42.667 55.467-102.4 89.6-166.4 98.134-68.267 8.533-136.533-8.534-187.733-46.934-8.533-8.533-17.066-17.066-29.866-25.6l-128-128c-98.133-102.4-93.868-264.535 4.265-362.668 51.2-46.933 115.2-72.533 179.2-72.533s128.001 25.6 179.2 72.533l72.533 72.533c17.067 17.067 17.067 42.667 0 59.733s-42.667 17.068-59.733 0l-72.533-72.533c-68.267-64-170.665-64-238.932 0s-68.267 174.935-4.267 238.935l128 132.266z" />
<glyph unicode="&#xe946;" glyph-name="lock" d="M213.333-42.666h597.333c72.533 0 128 55.467 128 128v298.667c0 72.533-55.467 128-128 128h-42.667v128c0 140.8-115.2 256-256 256s-256-115.2-256-256v-128h-42.667c-72.533 0-128-55.467-128-128v-298.667c0-72.533 55.467-128 128-128zM341.333 640c0 93.867 76.8 170.667 170.667 170.667s170.667-76.8 170.667-170.667v-128h-341.333v128zM170.667 384c0 25.6 17.067 42.667 42.667 42.667h597.333c25.6 0 42.667-17.067 42.667-42.667v-298.667c0-25.6-17.067-42.667-42.667-42.667h-597.333c-25.6 0-42.667 17.067-42.667 42.667v298.667z" />
<glyph unicode="&#xe947;" glyph-name="mail" d="M42.667 682.667v-512c0-72.533 55.467-128 128-128h682.667c72.533 0 128 55.467 128 128v512c0 72.533-55.467 128-128 128h-682.667c-72.533 0-128-55.467-128-128zM853.333 128h-682.667c-25.6 0-42.667 17.067-42.667 42.667v430.933l358.4-251.733c8.533-4.267 17.067-8.533 25.6-8.533s17.067 4.267 25.6 8.533l358.4 251.733v-430.933c0-25.6-17.067-42.667-42.667-42.667zM891.733 699.734l-379.733-264.533-379.733 264.533c8.533 12.8 21.333 25.6 38.4 25.6h682.667c17.067 0 29.867-8.533 38.4-25.6z" />
<glyph unicode="&#xe948;" glyph-name="map" d="M358.4 889.6c-8.533 4.267-12.8 4.267-17.066 4.267s-8.533 0-12.8-4.267h-4.266c0 0 0 0-4.267 0l-298.667-170.667c-12.8-8.533-21.333-21.333-21.333-38.4v-682.667c0-17.067 8.533-29.867 21.333-38.4s29.867-8.533 42.667 0l277.333 157.867 320-162.133c4.267-4.267 12.8-4.267 17.067-4.267s8.533 0 12.8 4.267h4.267c0 0 0 0 4.267 0l298.667 170.667c12.8 8.533 21.333 21.333 21.333 38.4v686.933c0 17.067-8.533 29.867-21.333 38.4s-29.867 8.533-42.667 0l-277.333-157.867-320 157.867zM640 66.134l-256 128v588.8l256-128v-588.8zM85.333 654.934l213.333 123.733v-584.533l-213.333-123.733v584.533zM938.667 194.134l-213.333-123.733v584.533l213.333 123.733v-584.533z" />
<glyph unicode="&#xe949;" glyph-name="minus" d="M853.333 426.667c0 25.6-17.067 42.667-42.667 42.667h-597.333c-25.6 0-42.667-17.067-42.667-42.667s17.067-42.667 42.667-42.667h597.333c25.6 0 42.667 17.067 42.667 42.667z" />
<glyph unicode="&#xe94a;" glyph-name="more-horizontal" d="M512 554.667c-72.533 0-128-55.467-128-128s55.467-128 128-128c72.533 0 128 55.467 128 128s-55.467 128-128 128zM512 384c-25.6 0-42.667 17.067-42.667 42.667s17.067 42.667 42.667 42.667c25.6 0 42.667-17.067 42.667-42.667s-17.067-42.667-42.667-42.667zM853.333 298.667c72.533 0 128 55.467 128 128s-55.467 128-128 128c-72.533 0-128-55.467-128-128s55.467-128 128-128zM853.333 469.334c25.6 0 42.667-17.067 42.667-42.667s-17.067-42.667-42.667-42.667c-25.6 0-42.667 17.067-42.667 42.667s17.067 42.667 42.667 42.667zM170.667 298.667c72.533 0 128 55.467 128 128s-55.467 128-128 128c-72.533 0-128-55.467-128-128s55.467-128 128-128zM170.667 469.334c25.6 0 42.667-17.067 42.667-42.667s-17.067-42.667-42.667-42.667c-25.6 0-42.667 17.067-42.667 42.667s17.067 42.667 42.667 42.667z" />
<glyph unicode="&#xe94b;" glyph-name="more-vertical" d="M512 554.667c-72.533 0-128-55.467-128-128s55.467-128 128-128c72.533 0 128 55.467 128 128s-55.467 128-128 128zM512 384c-25.6 0-42.667 17.067-42.667 42.667s17.067 42.667 42.667 42.667c25.6 0 42.667-17.067 42.667-42.667s-17.067-42.667-42.667-42.667zM512 896c-72.533 0-128-55.467-128-128s55.467-128 128-128c72.533 0 128 55.467 128 128s-55.467 128-128 128zM512 725.334c-25.6 0-42.667 17.067-42.667 42.667s17.067 42.667 42.667 42.667c25.6 0 42.667-17.067 42.667-42.667s-17.067-42.667-42.667-42.667zM512 213.334c-72.533 0-128-55.467-128-128s55.467-128 128-128c72.533 0 128 55.467 128 128s-55.467 128-128 128zM512 42.667c-25.6 0-42.667 17.067-42.667 42.667s17.067 42.667 42.667 42.667c25.6 0 42.667-17.067 42.667-42.667s-17.067-42.667-42.667-42.667z" />
<glyph unicode="&#xe94c;" glyph-name="movie" d="M42.667 93.867c0-76.8 59.733-136.533 136.533-136.533h665.6c76.8 0 136.533 59.733 136.533 136.533v665.6c0 76.8-59.733 136.533-136.533 136.533h-665.6c-76.8 0-136.533-59.733-136.533-136.533v-665.6zM128 384h128v-128h-128v128zM341.333 384h341.333v-341.333h-341.333v341.333zM768 384h128v-128h-128v128zM896 469.334h-128v128h128v-128zM682.667 469.334h-341.333v341.333h341.333v-341.333zM256 469.334h-128v128h128v-128zM128 93.867v76.8h128v-128h-76.8c-29.867 0-51.2 21.333-51.2 51.2zM844.8 42.667h-76.8v128h128v-76.8c0-29.867-21.333-51.2-51.2-51.2zM896 759.467v-76.8h-128v128h76.8c29.867 0 51.2-21.333 51.2-51.2zM179.2 810.667h76.8v-128h-128v76.8c0 29.867 21.333 51.2 51.2 51.2z" />
<glyph unicode="&#xe94d;" glyph-name="music" d="M727.078 335.394c-55.467 0-110.929-34.133-123.729-85.333-12.8-38.4-4.271-81.067 17.062-115.2 25.6-34.133 64.004-51.2 102.404-51.2h85.333c72.533 0 128 55.467 128 128v597.332c0 12.8-4.271 25.6-17.071 34.133-8.533 8.533-21.333 12.8-34.133 8.533l-511.998-85.333c-21.333-4.267-34.133-21.333-34.133-42.667v-473.599h-123.734c-55.467 0-110.932-34.133-123.732-85.333-12.8-38.4-4.267-81.067 17.066-115.2 25.6-34.133 64-51.2 102.4-51.2h85.333c72.533 0 128 55.467 128 128v563.199l426.669 72.533v-426.665h-123.738zM338.814 122.061c0-25.6-17.067-42.667-42.667-42.667h-85.333c-12.8 0-25.599 4.267-34.132 17.067-4.267 8.533-12.802 21.333-4.268 38.4 4.267 17.067 25.6 29.867 42.667 29.867h123.734v-42.667zM850.816 207.394c0-25.6-17.067-42.667-42.667-42.667h-85.333c-12.8 0-25.6 4.267-34.133 17.067-4.267 8.533-12.804 21.333-4.271 38.4 4.267 17.067 25.6 29.867 42.667 29.867h123.738v-42.667z" />
<glyph unicode="&#xe94e;" glyph-name="package" d="M42.667 234.667c0-46.933 25.6-93.867 72.533-115.2l341.333-170.667c4.267-4.267 12.8-4.267 17.067-8.533 4.267-17.067 72.533-17.067 81.067 0 4.267 0 12.8 4.267 17.067 4.267l341.333 170.667c42.667 21.333 72.533 64 72.533 115.2v409.6c0 46.933-25.6 93.867-72.533 115.2l-341.333 170.667c-34.133 17.067-76.8 17.067-115.2 0l-341.333-170.667c-42.667-21.333-72.533-64-72.533-115.2v-405.333zM153.6 196.267c-12.8 8.533-25.6 21.333-25.6 38.4v388.267l341.333-170.667v-418.133l-315.733 162.133zM298.667 750.934l332.8-166.4-119.467-59.733-332.8 166.4 119.467 59.733zM870.4 196.267l-315.733-157.867v418.133l341.333 170.667v-392.533c0-17.067-8.533-34.133-25.6-38.4zM494.933 849.067c4.267 4.267 12.8 4.267 17.067 4.267s12.8 0 17.067-4.267l311.467-157.867-119.467-59.733-332.8 166.4 106.666 51.2z" />
<glyph unicode="&#xe94f;" glyph-name="pause" d="M256 810.667c-25.6 0-42.667-17.067-42.667-42.667v-682.667c0-25.6 17.067-42.667 42.667-42.667h170.667c25.6 0 42.667 17.067 42.667 42.667v682.667c0 25.6-17.067 42.667-42.667 42.667h-170.667zM384 128h-85.333v597.333h85.333v-597.333zM597.333 810.667c-25.6 0-42.667-17.067-42.667-42.667v-682.667c0-25.6 17.067-42.667 42.667-42.667h170.667c25.6 0 42.667 17.067 42.667 42.667v682.667c0 25.6-17.067 42.667-42.667 42.667h-170.667zM725.333 128h-85.333v597.333h85.333v-597.333z" />
<glyph unicode="&#xe950;" glyph-name="pc" d="M853.333 170.667c72.533 0 128 55.467 128 128v426.667c0 72.533-55.467 128-128 128h-682.667c-72.533 0-128-55.467-128-128v-426.667c0-72.533 55.467-128 128-128h298.667v-85.333h-128c-25.6 0-42.667-17.067-42.667-42.667s17.067-42.667 42.667-42.667h341.333c25.6 0 42.667 17.067 42.667 42.667s-17.067 42.667-42.667 42.667h-128v85.333h298.667zM128 298.667v426.667c0 25.6 17.067 42.667 42.667 42.667h682.667c25.6 0 42.667-17.067 42.667-42.667v-426.667c0-25.6-17.067-42.667-42.667-42.667h-682.667c-25.6 0-42.667 17.067-42.667 42.667z" />
<glyph unicode="&#xe951;" glyph-name="pencil-line" d="M85.333 384v-170.667c0-25.6 17.067-42.667 42.667-42.667h170.667c12.8 0 21.333 4.267 29.867 12.8l469.333 469.333c17.067 17.067 17.067 42.667 0 59.733l-170.667 170.667c-17.067 17.067-42.667 17.067-59.733 0l-469.333-469.333c-8.533-8.533-12.8-17.067-12.8-29.867zM170.667 366.934l426.667 426.667 110.933-110.933-426.667-426.667h-110.933v110.933zM85.333-0c0-25.6 17.067-42.667 42.667-42.667h768c25.6 0 42.667 17.067 42.667 42.667s-17.067 42.667-42.667 42.667h-768c-25.6 0-42.667-17.067-42.667-42.667z" />
<glyph unicode="&#xe952;" glyph-name="pencil-square" d="M896 298.667c0 25.6-17.067 42.667-42.667 42.667s-42.667-17.067-42.667-42.667v-213.333c0-25.6-17.067-42.667-42.667-42.667h-597.333c-25.6 0-42.667 17.067-42.667 42.667v597.333c0 25.6 17.067 42.667 42.667 42.667h213.333c25.6 0 42.667 17.067 42.667 42.667s-17.067 42.667-42.667 42.667h-213.333c-72.533 0-128-55.467-128-128v-597.333c0-72.533 55.467-128 128-128h597.333c72.533 0 128 55.467 128 128v213.333zM738.133 883.2l-426.667-426.667c-8.533-8.533-12.8-17.067-12.8-29.867v-170.667c0-25.6 17.067-42.667 42.667-42.667h170.667c12.8 0 21.333 4.267 29.867 12.8l426.667 426.667c17.067 17.067 17.067 42.667 0 59.733l-170.667 170.667c-17.067 17.067-42.667 17.067-59.733 0zM494.933 298.667h-110.933v110.933l384 384 110.933-110.933-384-384z" />
<glyph unicode="&#xe953;" glyph-name="pencil" d="M85.333 256v-213.333c0-25.6 17.067-42.667 42.667-42.667h213.333c12.8 0 21.333 4.267 29.867 12.8l554.667 554.667c17.067 17.067 17.067 42.667 0 59.733l-213.333 213.333c-17.067 17.067-42.667 17.067-59.733 0l-554.667-554.667c-8.533-8.533-12.8-17.067-12.8-29.867zM170.667 238.934l512 512 153.6-153.6-512-512h-153.6v153.6z" />
<glyph unicode="&#xe954;" glyph-name="percent" d="M840.533 755.2c-17.067 17.067-42.667 17.067-59.733 0l-597.334-597.333c-17.067-17.067-17.067-42.667 0-59.733 8.533-8.533 21.334-12.8 29.867-12.8s21.334 4.267 29.867 12.8l597.333 597.333c17.067 17.067 17.067 46.933 0 59.733zM277.333 512c81.067 0 149.333 68.267 149.333 149.333s-68.267 149.333-149.333 149.333c-81.067 0-149.333-68.267-149.333-149.333s68.267-149.333 149.333-149.333zM277.333 725.334c34.133 0 64-29.867 64-64s-29.867-64-64-64c-34.133 0-64 29.867-64 64s29.867 64 64 64zM746.667 42.667c81.067 0 149.333 68.267 149.333 149.333s-68.267 149.333-149.333 149.333c-81.067 0-149.333-68.267-149.333-149.333s68.267-149.333 149.333-149.333zM746.667 256c34.133 0 64-29.867 64-64s-29.867-64-64-64c-34.133 0-64 29.867-64 64s29.867 64 64 64z" />
<glyph unicode="&#xe955;" glyph-name="phone" d="M298.667-42.666h426.667c72.533 0 128 55.467 128 128v682.667c0 72.533-55.467 128-128 128h-426.667c-72.533 0-128-55.467-128-128v-682.667c0-72.533 55.467-128 128-128zM256 768c0 25.6 17.067 42.667 42.667 42.667h426.667c25.6 0 42.667-17.067 42.667-42.667v-682.667c0-25.6-17.067-42.667-42.667-42.667h-426.667c-25.6 0-42.667 17.067-42.667 42.667v682.667zM460.8 149.334c8.533-8.533 17.067-12.8 29.867-12.8s21.333 4.267 29.867 12.8c8.533 8.533 12.8 17.067 12.8 29.867s-4.267 21.333-12.8 29.867c-4.267 4.267-8.533 8.534-12.8 8.534-8.533 4.267-21.333 4.267-34.133 0-4.267 0-8.533-4.267-12.8-8.534-8.533-8.533-12.8-17.067-12.8-29.867 0-4.267 0-12.8 4.267-17.067s4.267-8.533 8.534-12.8z" />
<glyph unicode="&#xe956;" glyph-name="picture" d="M938.667 128v597.333c0 72.533-55.467 128-128 128h-597.333c-72.533 0-128-55.467-128-128v-597.333c0-72.533 55.467-128 128-128h597.333c72.533 0 128 55.467 128 128zM810.667 85.334h-494.933l366.933 366.934 170.667-170.667v-153.6c0-25.6-17.067-42.667-42.667-42.667zM170.667 725.334c0 25.6 17.067 42.667 42.667 42.667h597.333c25.6 0 42.667-17.067 42.667-42.667v-324.267l-140.8 140.8c-17.067 17.067-42.667 17.067-59.733 0l-452.267-452.267c-17.067 4.267-29.867 21.333-29.867 38.4v597.333zM362.667 469.334c59.733 0 106.667 46.933 106.667 106.667s-46.933 106.667-106.667 106.667c-59.733 0-106.667-46.933-106.667-106.667s46.933-106.667 106.667-106.667zM362.667 597.334c12.8 0 21.333-8.533 21.333-21.333s-8.533-21.333-21.333-21.333c-12.8 0-21.333 8.533-21.333 21.333s8.533 21.333 21.333 21.333z" />
<glyph unicode="&#xe957;" glyph-name="pin" d="M85.333 512c0-315.733 388.266-580.267 401.066-588.8 8.533-4.267 17.067-8.533 25.6-8.533s17.067 4.267 25.6 8.533c17.067 12.8 401.067 273.067 401.067 588.8 0 234.667-192 426.667-426.667 426.667s-426.667-192-426.667-426.667zM853.333 512c0-230.4-260.267-443.733-341.333-503.467-81.067 59.733-341.333 273.067-341.333 503.467 0 187.733 153.6 341.333 341.333 341.333s341.333-153.6 341.333-341.333zM341.333 512c0-93.867 76.8-170.667 170.667-170.667s170.667 76.8 170.667 170.667c0 93.867-76.8 170.667-170.667 170.667s-170.667-76.8-170.667-170.667zM597.333 512c0-46.933-38.4-85.333-85.333-85.333s-85.333 38.4-85.333 85.333c0 46.933 38.4 85.333 85.333 85.333s85.333-38.4 85.333-85.333z" />
<glyph unicode="&#xe958;" glyph-name="play-1" d="M810.667 469.334h-256v256c0 25.6-17.067 42.667-42.667 42.667s-42.667-17.067-42.667-42.667v-256h-256c-25.6 0-42.667-17.067-42.667-42.667s17.067-42.667 42.667-42.667h256v-256c0-25.6 17.067-42.667 42.667-42.667s42.667 17.067 42.667 42.667v256h256c25.6 0 42.667 17.067 42.667 42.667s-17.067 42.667-42.667 42.667z" />
<glyph unicode="&#xe959;" glyph-name="play" d="M234.667 847.386c-12.8-8.533-21.333-21.333-21.333-38.4v-768c0-17.067 8.533-29.867 21.333-38.4 8.533-4.267 12.8-4.267 21.333-4.267s17.067 4.267 21.333 8.533l597.333 384c12.8 8.533 21.333 21.333 21.333 34.133s-8.533 29.868-21.333 34.134l-597.333 384c-12.8 12.8-29.867 12.8-42.667 4.266zM298.667 732.186l477.867-307.2-477.867-307.2v614.4z" />
<glyph unicode="&#xe95a;" glyph-name="poweroff" d="M508.8-51.2c110.933 0 217.6 42.667 302.933 123.733 166.4 166.4 166.4 435.2 0 601.6-17.067 17.067-42.667 17.067-59.733 0s-17.067-42.667 0-59.733c132.267-132.267 132.267-349.867 0-482.133s-349.867-132.267-482.133 0c-132.267 132.267-132.267 349.867 0 482.133 17.067 17.067 17.067 42.667 0 59.733s-42.667 17.067-59.733 0c-166.4-166.4-166.4-435.2 0-601.6 81.067-81.067 187.733-123.733 298.667-123.733zM453.12 853.334v-426.667c0-25.6 17.067-42.667 42.667-42.667s42.667 17.067 42.667 42.667v426.667c0 25.6-17.067 42.667-42.667 42.667s-42.667-17.067-42.667-42.667z" />
<glyph unicode="&#xe95b;" glyph-name="project" d="M725.333 810.667c0 46.933-38.4 85.333-85.333 85.333h-256c-46.933 0-85.333-38.4-85.333-85.333h-42.667c-72.533 0-128-55.467-128-128v-597.333c0-72.533 55.467-128 128-128h512c72.533 0 128 55.467 128 128v597.333c0 72.533-55.467 128-128 128h-42.667zM384 810.667h256v-85.333h-256v85.333zM810.667 682.667v-597.333c0-25.6-17.067-42.667-42.667-42.667h-512c-25.6 0-42.667 17.067-42.667 42.667v597.333c0 25.6 17.067 42.667 42.667 42.667h42.667c0-46.933 38.4-85.333 85.333-85.333h256c46.933 0 85.333 38.4 85.333 85.333h42.667c25.6 0 42.667-17.067 42.667-42.667z" />
<glyph unicode="&#xe95c;" glyph-name="refresh-2" d="M42.667 812.084c-25.6 0-42.667-17.067-42.667-42.667v-256c0-25.6 17.067-42.667 42.667-42.667 4.267 0 8.533-4.267 12.8-4.267s8.533 0 17.067 4.267h226.133c25.6 0 42.667 17.067 42.667 42.667s-17.067 42.667-42.667 42.667h-128l115.2 110.933c34.133 34.133 81.067 64 128 81.067 85.333 29.867 179.2 25.6 260.267-12.8s145.067-106.667 174.933-196.267c8.533-21.333 34.133-34.133 55.467-25.6s34.133 34.133 25.6 55.467c-38.4 106.667-115.2 192-217.6 243.2-102.4 46.933-217.6 55.467-324.266 17.067-59.733-21.333-115.201-55.467-157.868-98.133l-140.799-132.267v170.667c-4.267 25.6-21.334 42.667-46.934 42.667zM981.444 44.075c25.6 0 42.667 17.067 42.667 42.667v217.6l4.271 4.267c17.067 17.067 17.067 42.667 0 59.733-8.533 8.533-21.338 12.8-29.871 12.8-4.267 0-8.533 4.267-17.067 4.267h-256c-25.6 0-42.667-17.067-42.667-42.667s17.067-42.667 42.667-42.667h166.4l-123.733-115.2c-64-64-149.333-98.133-243.198-98.133-89.6 0-174.933 34.133-243.2 98.133-34.133 34.133-64 81.067-81.067 128-8.533 21.333-34.133 34.133-55.467 25.6s-34.133-34.133-25.6-55.467c21.333-59.733 55.466-115.2 102.4-157.867 85.333-85.333 192-123.733 302.934-123.733 110.931 0 217.598 42.667 298.665 123.733l110.933 102.4v-140.8c4.267-25.6 21.333-42.667 46.933-42.667z" />
<glyph unicode="&#xe95d;" glyph-name="refresh" d="M960 569.294c-76.8 221.867-324.267 337.067-546.133 260.267-59.733-21.333-115.201-55.467-157.868-98.133l-128-119.467v162.134c0 25.6-17.067 42.667-42.666 42.667s-42.667-17.067-42.667-42.667v-256c0-12.8 4.267-21.333 12.801-29.867 12.8-12.8 29.866-17.067 46.932-12.8h238.933c25.6 0 42.667 17.067 42.667 42.667s-17.067 42.667-42.667 42.667h-145.066l119.466 110.933c34.133 34.133 81.067 64 128 81.067 85.334 29.867 179.2 25.6 260.267-12.8s145.067-106.666 174.933-196.266c29.867-89.6 25.6-179.201-12.8-260.268s-106.667-145.067-196.267-174.933c-179.2-64-371.2 29.867-435.2 209.067-8.533 21.333-34.132 34.133-55.466 25.6s-34.134-34.133-25.6-55.467c59.733-174.933 226.133-285.867 401.067-285.867 46.933 0 93.867 8.533 140.8 25.6 106.667 38.4 192 115.2 243.2 217.6s59.733 217.601 21.333 324.268z" />
<glyph unicode="&#xe95e;" glyph-name="save-1" d="M196.267 4.267c12.8-8.533 29.867-4.267 42.667 4.267l273.066 196.267 273.067-196.267c8.533-4.267 17.067-8.533 25.6-8.533s12.8 0 21.333 4.267c12.8 8.533 21.333 21.333 21.333 38.4v682.667c0 72.533-55.467 128-128 128h-426.667c-72.533 0-128-55.467-128-128v-682.667c4.267-17.067 12.8-29.867 25.6-38.4zM260.267 725.334c0 25.6 17.067 42.667 42.667 42.667h426.667c25.6 0 42.667-17.067 42.667-42.667v-601.6l-230.4 166.4c-8.533 4.267-17.067 8.533-25.6 8.533s-17.067-4.267-25.6-8.533l-230.4-166.4v601.6z" />
<glyph unicode="&#xe95f;" glyph-name="save" d="M938.667 128v469.333c0 12.8-4.267 21.333-12.8 29.867l-213.333 213.333c-8.533 8.533-17.067 12.8-29.867 12.8h-469.333c-72.533 0-128-55.467-128-128v-597.333c0-72.533 55.467-128 128-128h597.333c72.533 0 128 55.467 128 128zM682.667 85.334h-341.333v256h341.333v-256zM853.333 128c0-25.6-17.067-42.667-42.667-42.667h-42.667v298.667c0 25.6-17.067 42.667-42.667 42.667h-426.667c-25.6 0-42.667-17.067-42.667-42.667v-298.667h-42.667c-25.6 0-42.667 17.067-42.667 42.667v597.333c0 25.6 17.067 42.667 42.667 42.667h42.667v-170.667c0-25.6 17.067-42.667 42.667-42.667h341.333c25.6 0 42.667 17.067 42.667 42.667s-17.067 42.667-42.667 42.667h-298.667v128h324.267l187.733-187.733v-452.267z" />
<glyph unicode="&#xe960;" glyph-name="search" d="M810.667 490.667c0 200.533-162.133 362.667-362.666 362.667s-362.667-162.133-362.667-362.667c0-200.533 162.133-362.667 362.667-362.667 85.333 0 162.133 29.867 226.133 76.8l192-192c8.533-8.533 21.333-12.8 29.867-12.8s21.333 4.267 29.867 12.8c17.067 17.067 17.067 42.667 0 59.733l-192 192c46.933 64 76.8 140.8 76.8 226.133zM170.667 490.667c0 153.6 123.733 277.333 277.333 277.333s277.333-123.733 277.333-277.333c0-76.8-29.867-145.067-81.067-196.267s-119.467-81.067-196.266-81.067c-153.6 0-277.333 123.733-277.333 277.333z" />
<glyph unicode="&#xe961;" glyph-name="settings-2" d="M170.667 469.334c25.6 0 42.667 17.067 42.667 42.667v298.667c0 25.6-17.067 42.667-42.667 42.667s-42.667-17.067-42.667-42.667v-298.667c0-25.6 17.067-42.667 42.667-42.667zM554.667 42.667v384c0 25.6-17.067 42.667-42.667 42.667s-42.667-17.067-42.667-42.667v-384c0-25.6 17.067-42.667 42.667-42.667s42.667 17.067 42.667 42.667zM810.667 810.667v-384c0-25.6 17.067-42.667 42.667-42.667s42.667 17.067 42.667 42.667v384c0 25.6-17.067 42.667-42.667 42.667s-42.667-17.067-42.667-42.667zM42.667 298.667h85.333v-256c0-25.6 17.067-42.667 42.667-42.667s42.667 17.067 42.667 42.667v256h85.333c25.6 0 42.667 17.067 42.667 42.667s-17.067 42.667-42.667 42.667h-256c-25.6 0-42.667-17.067-42.667-42.667s17.067-42.667 42.667-42.667zM384 554.667h256c25.6 0 42.667 17.067 42.667 42.667s-17.067 42.667-42.667 42.667h-85.333v170.667c0 25.6-17.067 42.667-42.667 42.667s-42.667-17.067-42.667-42.667v-170.667h-85.333c-25.6 0-42.667-17.067-42.667-42.667s17.067-42.667 42.667-42.667zM1024 256c0 25.6-17.067 42.667-42.667 42.667h-256c-25.6 0-42.667-17.067-42.667-42.667s17.067-42.667 42.667-42.667h85.333v-170.667c0-25.6 17.067-42.667 42.667-42.667s42.667 17.067 42.667 42.667v170.667h85.333c25.6 0 42.667 17.067 42.667 42.667z" />
<glyph unicode="&#xe962;" glyph-name="settings" d="M514.56 623.83c-93.867 0-170.667-76.8-170.667-170.667s76.8-170.667 170.667-170.667c93.867 0 170.667 76.8 170.667 170.667s-76.8 170.667-170.667 170.667zM514.56 367.83c-46.933 0-85.333 38.4-85.333 85.333s38.4 85.333 85.333 85.333c46.933 0 85.333-38.4 85.333-85.333s-38.4-85.333-85.333-85.333zM873.105 581.172c-8.533 0-12.8 4.267-17.067 8.533 0 4.267 0 12.8-4.267 17.067-4.267 8.533 0 17.067 8.533 29.867 21.333 21.333 34.133 55.467 34.133 85.333 0 34.133-12.8 64-34.133 85.333-46.933 46.933-128 46.933-174.933 0-8.533-8.533-17.067-8.534-25.6-4.267s-12.8 12.8-12.8 21.333c0 4.267 0 8.533 0 12.8-4.267 34.133-25.6 64-55.467 81.067-38.4 25.6-89.6 25.6-132.267 8.533-38.402-17.067-68.269-59.733-68.269-110.933v-4.266c0-8.533-4.266-12.8-12.8-17.067-4.267 0-4.267 0-8.534-4.266-12.8-4.267-25.6-4.267-34.133 8.533l-8.534 8.534c-42.667 42.667-115.2 42.667-157.866 0l-12.8-8.534c-25.6-21.333-38.4-55.467-38.4-85.333 0-34.133 12.8-64 38.4-85.333l4.267-4.267c8.533-4.267 8.534-17.066 4.267-25.6s-12.8-17.067-25.6-17.067h-8.533c-42.667 0-85.333-21.333-110.933-59.733s-25.6-85.334-4.267-128.001c21.333-38.4 64-68.267 110.933-68.267h8.533c12.8 0 21.333-8.533 25.6-17.067s4.267-21.333-8.533-34.133l-4.266-4.267c-46.933-46.933-46.933-128 0-174.933l8.533-8.533c46.933-46.933 128-46.933 174.933 0l4.267 4.267c8.533 8.533 21.333 8.533 34.133 4.267s17.067-12.8 17.067-29.867c0-42.667 21.334-85.333 59.735-106.667 21.333-12.8 42.667-21.333 68.267-21.333 21.333 0 42.667 4.267 59.733 12.8 38.4 21.333 68.267 64 68.267 110.933v4.267c0 12.8 4.267 21.333 17.067 25.6 8.533 4.267 17.067 0 29.867-8.533 46.933-46.933 127.996-46.933 174.929 0l4.271 4.267c46.933 46.933 46.933 119.467 0 170.667l-8.533 8.533c-8.533 8.533-8.533 21.333-4.267 34.133 4.267 8.533 12.8 17.067 25.6 17.067 38.4 0 76.8 21.333 98.133 51.2 25.6 34.133 29.867 76.8 17.067 119.467-12.8 59.735-64 93.868-123.733 93.868zM911.505 427.572c-8.533-8.533-17.067-17.067-34.133-17.067-42.667 0-85.333-25.6-102.4-68.267s-8.533-89.6 21.333-123.733l8.533-8.533c12.8-12.8 12.8-38.4 0-51.2l-4.271-4.267c-12.8-12.8-38.396-17.067-55.462 4.267-34.133 34.133-81.067 42.667-123.733 21.333-38.4-17.067-64-59.733-64-102.4v-4.267c0-17.067-8.533-29.867-17.067-34.133-21.333-12.8-38.4-4.267-46.933 0-12.8 8.533-21.333 21.333-21.333 38.4v4.267c0 46.933-29.867 85.333-72.535 102.4-12.8 8.533-29.867 8.533-46.934 8.533-29.867 0-55.466-12.8-81.066-34.133l-4.267-4.267c-12.8-12.8-38.4-12.8-51.2 0l-8.533 8.533c-12.8 12.8-12.8 38.4 0 51.2l8.533 8.533c34.133 34.133 42.667 81.067 21.333 123.733-17.067 42.667-59.733 68.267-102.4 68.267h-8.533c-17.067 0-29.867 8.533-34.134 17.067-12.8 21.333-4.267 38.4 0 46.933 8.533 12.8 21.333 21.333 38.4 21.333h8.533c46.933 0 85.333 29.868 102.4 68.268 21.333 42.667 8.533 89.6-25.6 119.467l-4.266 4.267c-8.533 4.267-8.534 12.8-8.534 21.333s4.267 17.067 8.534 25.6l12.8 8.534c12.8 12.8 29.867 12.8 42.667 0l12.8-12.8c29.867-29.867 76.8-38.4 115.2-25.6 4.267 0 8.533 0 12.8 4.267 42.669 17.067 68.269 55.467 68.269 98.134v4.266c0 12.8 8.533 25.6 17.067 29.867 17.067 8.533 38.4 8.533 51.2 0s17.067-17.067 17.067-29.867c0-4.267 0-8.533 0-12.8 8.533-34.133 29.867-64 64-81.066 42.667-17.067 89.6-8.533 123.733 25.6 12.8 12.8 38.396 12.8 51.196 0 8.533-8.533 12.804-17.067 12.804-25.6s-4.271-21.334-12.804-29.867c-34.133-25.6-42.662-68.267-29.862-106.667v-4.267c0-4.267 0-12.8 4.267-17.067 17.067-42.667 55.467-68.268 106.667-68.268 17.067 0 34.133-8.533 38.4-25.6s0-29.867-8.533-42.667z" />
<glyph unicode="&#xe963;" glyph-name="share" d="M763.733 554.667c93.867 0 170.667 76.8 170.667 170.667s-76.8 170.667-170.667 170.667c-93.867 0-170.667-76.8-170.667-170.667 0-17.067 4.267-29.867 8.533-46.933l-226.133-132.267c-29.867 29.867-72.533 51.2-119.467 51.2-93.867 0-170.667-76.8-170.667-170.667s76.8-170.667 170.667-170.667c46.933 0 89.6 21.333 119.467 51.2l226.133-132.267c-4.267-12.8-8.533-29.867-8.533-46.933 0-93.867 76.8-170.667 170.667-170.667s170.667 76.8 170.667 170.667c0 93.867-76.8 170.667-170.667 170.667-46.933 0-89.6-21.333-119.467-51.2l-226.133 132.267c4.267 12.8 8.533 29.867 8.533 46.933s-4.267 29.867-8.533 46.933l226.133 132.267c29.867-29.867 72.533-51.2 119.467-51.2zM763.733 213.334c46.933 0 85.333-38.4 85.333-85.333s-38.4-85.333-85.333-85.333c-46.933 0-85.333 38.4-85.333 85.333 0 17.067 4.267 29.867 12.8 42.667 12.8 25.6 42.667 42.667 72.533 42.667zM251.733 341.334c-46.933 0-85.333 38.4-85.333 85.333s38.4 85.333 85.333 85.333c46.933 0 85.333-38.4 85.333-85.333s-38.4-85.333-85.333-85.333zM763.733 810.667c46.933 0 85.333-38.4 85.333-85.333s-38.4-85.333-85.333-85.333c-46.933 0-85.333 38.4-85.333 85.333s38.4 85.333 85.333 85.333z" />
<glyph unicode="&#xe964;" glyph-name="shield" d="M516.267-42.666c8.533 0 12.8 0 17.066 4.267 12.8 8.533 366.934 187.733 366.934 465.067v341.333c0 21.333-12.8 38.4-34.133 42.667l-341.333 85.333c-8.533 0-12.8 0-21.333 0l-341.333-85.333c-17.067-4.267-34.133-21.333-34.133-42.667v-341.333c0-277.333 349.867-456.533 366.934-465.067 8.533-4.267 12.8-4.267 21.333-4.267zM217.6 426.667v307.2l298.667 76.8 298.667-76.8v-307.2c0-192-230.4-337.067-298.667-379.733-68.267 42.667-298.667 187.733-298.667 379.733z" />
<glyph unicode="&#xe965;" glyph-name="sidebar" d="M810.667-0c72.533 0 128 55.467 128 128v597.333c0 72.533-55.467 128-128 128h-597.333c-72.533 0-128-55.467-128-128v-597.333c0-72.533 55.467-128 128-128h597.333zM810.667 85.334h-384v426.667h426.667v-384c0-25.6-17.067-42.667-42.667-42.667zM213.333 768h597.333c25.6 0 42.667-17.067 42.667-42.667v-128h-682.667v128c0 25.6 17.067 42.667 42.667 42.667zM170.667 128v384h170.667v-426.667h-128c-25.6 0-42.667 17.067-42.667 42.667z" />
<glyph unicode="&#xe966;" glyph-name="squares" d="M85.333 810.667v-298.667c0-25.6 17.067-42.667 42.667-42.667h298.667c25.6 0 42.667 17.067 42.667 42.667v298.667c0 25.6-17.067 42.667-42.667 42.667h-298.667c-25.6 0-42.667-17.067-42.667-42.667zM170.667 768h213.333v-213.333h-213.333v213.333zM896 853.334h-298.667c-25.6 0-42.667-17.067-42.667-42.667v-298.667c0-25.6 17.067-42.667 42.667-42.667h298.667c25.6 0 42.667 17.067 42.667 42.667v298.667c0 25.6-17.067 42.667-42.667 42.667zM853.333 554.667h-213.333v213.333h213.333v-213.333zM597.333-0h298.667c25.6 0 42.667 17.067 42.667 42.667v298.667c0 25.6-17.067 42.667-42.667 42.667h-298.667c-25.6 0-42.667-17.067-42.667-42.667v-298.667c0-25.6 17.067-42.667 42.667-42.667zM640 298.667h213.333v-213.333h-213.333v213.333zM85.333 42.667c0-25.6 17.067-42.667 42.667-42.667h298.667c25.6 0 42.667 17.067 42.667 42.667v298.667c0 25.6-17.067 42.667-42.667 42.667h-298.667c-25.6 0-42.667-17.067-42.667-42.667v-298.667zM170.667 298.667h213.333v-213.333h-213.333v213.333z" />
<glyph unicode="&#xe967;" glyph-name="star" d="M982.933 557.867c-4.267 17.067-17.067 25.6-34.133 29.867l-273.067 38.4-123.733 247.466c-12.8 29.867-64 29.867-76.8 0l-123.733-247.466-273.067-38.4c-17.067-4.267-29.867-12.8-34.133-29.867s0-34.133 12.8-42.667l196.266-192-46.933-273.067c-4.267-17.067 4.267-34.133 17.067-42.667s29.867-12.8 46.933-4.267l243.2 128 243.2-128c4.267-4.267 12.8-4.267 21.333-4.267s17.067 4.267 25.6 8.533c12.8 8.533 21.333 25.6 17.067 42.667l-46.933 273.067 196.267 192c12.8 12.8 17.067 29.867 12.8 42.667zM697.067 370.134c-8.533-8.533-12.8-25.6-12.8-38.4l34.133-209.067-187.733 98.133c-12.8 8.533-25.6 8.533-38.4 0l-187.733-98.133 34.132 209.067c4.267 12.8-4.266 29.867-12.799 38.4l-149.333 149.334 209.066 29.866c12.8 0 25.6 12.8 34.133 21.333l93.867 187.733 93.867-187.733c4.267-12.8 17.067-21.333 34.133-21.333l209.067-29.866-153.6-149.334z" />
<glyph unicode="&#xe968;" glyph-name="toggle" d="M341.333 85.334h341.333c187.733 0 341.333 153.6 341.333 341.333s-153.6 341.333-341.333 341.333h-341.333c-187.733 0-341.333-153.6-341.333-341.333s153.6-341.333 341.333-341.333zM341.333 682.667h341.333c140.8 0 256-115.2 256-256s-115.2-256-256-256h-341.333c-140.8 0-256 115.2-256 256s115.2 256 256 256zM682.667 273.067c93.867 0 170.667 76.8 170.667 170.667s-76.8 170.667-170.667 170.667c-93.867 0-170.667-76.8-170.667-170.667s76.8-170.667 170.667-170.667zM682.667 529.067c46.933 0 85.333-38.4 85.333-85.333s-38.4-85.333-85.333-85.333c-46.933 0-85.333 38.4-85.333 85.333s38.4 85.333 85.333 85.333z" />
<glyph unicode="&#xe969;" glyph-name="trash" d="M853.333 85.334v554.667h42.667c25.6 0 42.667 17.067 42.667 42.667s-17.067 42.667-42.667 42.667h-170.667v42.667c0 72.533-55.467 128-128 128h-170.667c-72.533 0-128-55.467-128-128v-42.667h-170.667c-25.6 0-42.667-17.067-42.667-42.667s17.067-42.667 42.667-42.667h42.667v-554.667c0-72.533 55.467-128 128-128h426.667c72.533 0 128 55.467 128 128zM384 768c0 25.6 17.067 42.667 42.667 42.667h170.667c25.6 0 42.667-17.067 42.667-42.667v-42.667h-256v42.667zM725.333 42.667h-426.667c-25.6 0-42.667 17.067-42.667 42.667v554.667h512v-554.667c0-25.6-17.067-42.667-42.667-42.667zM426.667 512c-25.6 0-42.667-17.067-42.667-42.667v-256c0-25.6 17.067-42.667 42.667-42.667s42.667 17.067 42.667 42.667v256c0 25.6-17.067 42.667-42.667 42.667zM597.333 512c-25.6 0-42.667-17.067-42.667-42.667v-256c0-25.6 17.067-42.667 42.667-42.667s42.667 17.067 42.667 42.667v256c0 25.6-17.067 42.667-42.667 42.667z" />
<glyph unicode="&#xe96a;" glyph-name="twitter" d="M653.888 80.529c179.2 106.667 285.867 302.933 285.867 533.333 0 8.533 0 12.8 0 21.333 42.667 46.933 72.533 102.4 85.333 162.133 4.267 17.067-4.267 34.134-17.067 46.934-12.8 8.533-34.133 8.533-46.933 0-29.867-21.333-64-38.4-98.133-51.2-38.4 34.133-85.333 55.466-140.8 59.733-64 4.267-123.733-17.066-170.667-55.466-51.2-46.933-81.067-110.934-81.067-179.2-123.734 8.533-234.668 72.534-307.201 174.934-8.533 12.8-25.6 21.333-38.4 17.066-17.067 0-29.867-12.799-34.133-25.599 0-4.267-46.933-106.667-42.667-234.667 4.267-106.667 46.933-243.2 204.8-341.333-64-29.867-136.533-42.667-209.067-42.667-21.333 0-38.4-12.8-42.667-29.867s4.267-38.4 21.333-46.933c106.667-59.733 217.6-89.6 328.533-89.6s213.334 25.6 302.934 81.067zM368.020 174.396c12.8 8.533 21.333 25.6 17.067 38.4s-12.8 29.867-25.6 34.133c-247.467 110.933-238.933 320-213.333 426.666 93.867-98.133 226.133-153.6 366.934-149.333 21.333 0 42.667 21.333 42.667 42.667v42.667c0 42.667 17.067 85.332 51.2 115.199 29.867 25.6 68.267 38.401 106.667 34.134s76.8-21.334 102.4-51.2c12.8-12.8 29.867-17.066 42.667-12.8 8.533 4.267 21.333 4.266 29.867 8.532-8.533-8.533-17.067-21.332-25.6-29.866s-12.8-25.6-12.8-38.4c0-8.533 4.267-17.067 4.267-25.6 0-204.8-89.6-371.2-243.2-460.8-119.467-68.267-260.268-85.333-401.068-51.2 55.467 17.067 106.667 42.667 157.867 76.8z" />
<glyph unicode="&#xe96b;" glyph-name="user-check" d="M512 320h-298.667c-119.467 0-213.333-93.867-213.333-213.333v-85.333c0-25.6 17.067-42.667 42.667-42.667s42.667 17.067 42.667 42.667v85.333c0 72.533 55.467 128 128 128h298.667c72.533 0 128-55.467 128-128v-85.333c0-25.6 17.067-42.667 42.667-42.667s42.667 17.067 42.667 42.667v85.333c0 119.467-93.867 213.333-213.333 213.333zM362.667 426.667c119.467 0 213.333 93.867 213.333 213.333s-93.867 213.333-213.333 213.333c-119.467 0-213.333-93.867-213.333-213.333s93.867-213.333 213.333-213.333zM362.667 768c72.533 0 128-55.467 128-128s-55.467-128-128-128c-72.533 0-128 55.467-128 128s55.467 128 128 128zM951.466 584.534l-140.8-140.801-55.466 55.468c-17.067 17.067-42.668 17.067-59.734 0s-17.067-42.668 0-59.734l85.333-85.333c8.533-8.533 21.334-12.8 29.867-12.8s21.334 4.266 29.867 12.8l170.667 170.667c17.067 17.067 17.067 42.668 0 59.734s-42.668 17.067-59.734 0z" />
<glyph unicode="&#xe96c;" glyph-name="user-close" d="M725.333 21.334v85.333c0 119.467-93.867 213.333-213.333 213.333h-298.667c-119.467 0-213.333-93.867-213.333-213.333v-85.333c0-25.6 17.067-42.667 42.667-42.667s42.667 17.067 42.667 42.667v85.333c0 72.533 55.467 128 128 128h298.667c72.533 0 128-55.467 128-128v-85.333c0-25.6 17.067-42.667 42.667-42.667s42.667 17.067 42.667 42.667zM149.333 640c0-119.467 93.867-213.333 213.333-213.333s213.333 93.867 213.333 213.333c0 119.467-93.867 213.333-213.333 213.333s-213.333-93.867-213.333-213.333zM490.667 640c0-72.533-55.467-128-128-128s-128 55.467-128 128c0 72.533 55.467 128 128 128s128-55.467 128-128zM738.133 354.133c8.533-8.533 21.334-12.8 29.867-12.8s21.334 4.266 29.867 12.8l76.8 76.801 76.8-76.801c8.533-8.533 21.334-12.8 29.867-12.8s21.334 4.266 29.867 12.8c17.067 17.067 17.067 42.668 0 59.734l-76.801 76.8 76.801 76.8c17.067 17.067 17.067 42.668 0 59.734s-42.668 17.067-59.734 0l-76.8-76.801-76.8 76.801c-17.067 17.067-42.668 17.067-59.734 0s-17.067-42.668 0-59.734l76.801-76.8-76.801-76.8c-17.067-17.067-17.067-42.668 0-59.734z" />
<glyph unicode="&#xe96d;" glyph-name="user-minus" d="M512 320h-298.667c-119.467 0-213.333-93.867-213.333-213.333v-85.333c0-25.6 17.067-42.667 42.667-42.667s42.667 17.067 42.667 42.667v85.333c0 72.533 55.467 128 128 128h298.667c72.533 0 128-55.467 128-128v-85.333c0-25.6 17.067-42.667 42.667-42.667s42.667 17.067 42.667 42.667v85.333c0 119.467-93.867 213.333-213.333 213.333zM362.667 426.667c119.467 0 213.333 93.867 213.333 213.333s-93.867 213.333-213.333 213.333c-119.467 0-213.333-93.867-213.333-213.333s93.867-213.333 213.333-213.333zM362.667 768c72.533 0 128-55.467 128-128s-55.467-128-128-128c-72.533 0-128 55.467-128 128s55.467 128 128 128zM981.333 490.667h-256c-25.6 0-42.667-17.067-42.667-42.667s17.067-42.667 42.667-42.667h256c25.6 0 42.667 17.067 42.667 42.667s-17.067 42.667-42.667 42.667z" />
<glyph unicode="&#xe96e;" glyph-name="user-plus" d="M512 320h-298.667c-119.467 0-213.333-93.867-213.333-213.333v-85.333c0-25.6 17.067-42.667 42.667-42.667s42.667 17.067 42.667 42.667v85.333c0 72.533 55.467 128 128 128h298.667c72.533 0 128-55.467 128-128v-85.333c0-25.6 17.067-42.667 42.667-42.667s42.667 17.067 42.667 42.667v85.333c0 119.467-93.867 213.333-213.333 213.333zM384 426.667c119.467 0 213.333 93.867 213.333 213.333s-93.867 213.333-213.333 213.333c-119.467 0-213.333-93.867-213.333-213.333s93.867-213.333 213.333-213.333zM384 768c72.533 0 128-55.467 128-128s-55.467-128-128-128c-72.533 0-128 55.467-128 128s55.467 128 128 128zM981.333 405.334c25.6 0 42.667 17.067 42.667 42.667s-17.067 42.667-42.667 42.667h-85.333v85.333c0 25.6-17.067 42.667-42.667 42.667s-42.667-17.067-42.667-42.667v-85.333h-85.333c-25.6 0-42.667-17.067-42.667-42.667s17.067-42.667 42.667-42.667h85.333v-85.333c0-25.6 17.067-42.667 42.667-42.667s42.667 17.067 42.667 42.667v85.333h85.333z" />
<glyph unicode="&#xe96f;" glyph-name="user" d="M810.667 106.667v-85.333c0-25.6 17.067-42.667 42.667-42.667s42.667 17.067 42.667 42.667v85.333c0 119.467-93.867 213.333-213.333 213.333h-341.333c-119.467 0-213.333-93.867-213.333-213.333v-85.333c0-25.6 17.067-42.667 42.667-42.667s42.667 17.067 42.667 42.667v85.333c0 72.533 55.467 128 128 128h341.333c72.533 0 128-55.467 128-128zM529.068 853.334c-119.467 0-213.333-93.867-213.333-213.333s93.866-213.333 213.333-213.333c119.467 0 213.332 93.867 213.332 213.333s-93.866 213.333-213.332 213.333zM529.068 512c-72.533 0-128 55.467-128 128s55.467 128 128 128c72.533 0 128-55.467 128-128s-55.467-128-128-128z" />
<glyph unicode="&#xe970;" glyph-name="www" d="M512 896c-260.267 0-469.333-209.067-469.333-469.333s209.067-469.333 469.333-469.333c260.267 0 469.333 209.067 469.333 469.333s-209.067 469.333-469.333 469.333zM891.733 469.334h-170.667c-8.533 119.467-46.933 230.4-115.2 328.533 153.6-38.4 268.8-170.667 285.867-328.533zM388.267 384h251.733c-12.8-115.2-55.467-226.133-123.733-315.733-76.8 89.6-119.466 200.533-128 315.733zM388.267 469.334c12.8 115.2 55.466 226.133 123.733 315.733 72.533-93.867 115.2-204.8 123.733-315.733h-247.466zM413.867 797.867c-64-98.133-102.4-209.067-115.2-328.533h-170.667c21.333 157.867 136.534 290.133 285.867 328.533zM132.267 384h170.667c8.533-119.467 46.932-230.4 115.199-328.533-153.6 38.4-268.799 170.667-285.866 328.533zM610.133 55.467c64 98.133 102.4 209.067 115.2 328.533h170.667c-21.333-157.867-136.533-290.133-285.867-328.533z" />
</font>
</defs>
</svg>
